<svg width="720" height="402" viewBox="0 0 720 402" fill="none" xmlns="http://www.w3.org/2000/svg">
    <path opacity="0.51" d="M110.865 343.561H598.71C598.71 343.561 678.21 278.858 624.169 191.966C567.544 100.962 444.855 142.833 355.294 218.107C286.759 275.698 230.438 208.977 173.419 207.35C98.1451 205.191 48.3226 298.854 110.865 343.561Z" fill="#CCE9FF"/>
    <path d="M358.013 164.288H341.453V193.306H358.013V164.288Z" fill="#F2F2F3"/>
    <path d="M408.803 82.7971H287.854C286.309 82.7971 285.056 84.0403 285.056 85.5739V168.14C285.056 169.674 286.309 170.917 287.854 170.917H408.803C410.348 170.917 411.6 169.674 411.6 168.14V85.5739C411.6 84.0403 410.348 82.7971 408.803 82.7971Z" fill="#D3D3D3"/>
    <path d="M404.753 87.2712H291.904C290.705 87.2712 289.733 88.2361 289.733 89.4264V164.284C289.733 165.474 290.705 166.439 291.904 166.439H404.753C405.952 166.439 406.924 165.474 406.924 164.284V89.4264C406.924 88.2361 405.952 87.2712 404.753 87.2712Z" fill="#F7F7F7"/>
    <path d="M311.76 126.857C320.251 126.857 327.135 120.024 327.135 111.596C327.135 103.167 320.251 96.3348 311.76 96.3348C303.269 96.3348 296.385 103.167 296.385 111.596C296.385 120.024 303.269 126.857 311.76 126.857Z" fill="#084970"/>
    <path d="M396.383 117.507H333.728V120.269H396.383V117.507Z" fill="#084970"/>
    <path d="M396.383 126.656H333.728V129.418H396.383V126.656Z" fill="#084970"/>
    <path d="M396.383 134.986H296.385V137.748H396.383V134.986Z" fill="#084970"/>
    <path d="M396.383 143.317H296.385V146.079H396.383V143.317Z" fill="#084970"/>
    <path d="M338.573 151.643H296.385V154.405H338.573V151.643Z" fill="#084970"/>
    <path d="M324.491 185.248C324.491 185.248 318.889 190.708 319.991 192.443C321.094 194.177 338.524 192.767 338.524 192.767L340.155 183.301L338.655 179.951C338.655 179.951 326.344 184.146 324.491 185.248Z" fill="#084970"/>
    <path d="M352.553 181.752C352.553 181.752 346.864 181.064 344.37 179.147C341.876 177.23 337.436 176.806 333.274 179.147C329.111 181.488 322.455 185.341 325.091 185.341C327.727 185.341 336.187 181.444 336.187 181.444C336.187 181.444 329.812 185.478 330.776 187.82C331.74 190.161 336.559 193.876 338.52 192.778C340.481 191.68 350.333 187.82 353.663 187.82C356.993 187.82 352.553 181.752 352.553 181.752Z" fill="#FEE3CA"/>
    <path d="M255.364 201.16H247.879V343.431H255.364V201.16Z" fill="#0B538C"/>
    <path d="M403.864 201.16H396.379V343.431H403.864V201.16Z" fill="#0B538C"/>
    <path d="M432.581 191.854H221.685V205.817H432.581V191.854Z" fill="#F2F2F3"/>
    <path d="M367.478 329.733C367.478 329.733 364.965 335.316 360.439 336.314C355.912 337.311 337.564 340.315 343.597 343.431C349.631 346.546 378.881 346.297 378.881 346.297V323.833L367.478 329.733Z" fill="#0B538C"/>
    <path d="M433.343 326.833C433.343 326.833 430.826 332.417 426.304 333.418C421.781 334.419 403.429 337.419 409.459 340.535C415.489 343.651 444.743 343.397 444.743 343.397V320.941L433.343 326.833Z" fill="#0B538C"/>
    <path d="M424.035 249.259L427.56 329.733L446.16 329.272L451.211 245.741L424.035 249.259Z" fill="#0B4870"/>
    <path d="M432.585 319.073L384.075 339.229L385.553 342.374L434.974 325.185V316.169L432.585 319.073Z" fill="#F2F2F3"/>
    <path d="M432.585 317.011L421.669 340.907L427.125 340.066L440.04 319.073L438.773 314.494L432.585 317.011Z" fill="#F2F2F3"/>
    <path d="M432.585 324.976L487.556 342.374V338.391L434.974 316.169L432.585 324.976Z" fill="#F2F2F3"/>
    <path d="M440.036 266.262H432.581V319.073H440.036V266.262Z" fill="#D3D3D3"/>
    <path d="M474.75 225.957C474.75 225.957 473.55 252.843 455.482 252.843C437.415 252.843 383.032 254.395 383.032 254.395V329.733H363.469C363.469 329.733 347.43 258.668 363.469 236.532C379.507 214.396 474.75 225.957 474.75 225.957Z" fill="#0B4870"/>
    <path d="M437.959 120.269V116.919C437.959 116.919 428.096 116.472 427.313 107.684C426.529 98.8957 426.641 91.1088 426.641 91.1088C427.427 89.0003 428.85 87.1843 430.715 85.9096C432.581 84.6349 434.798 83.9638 437.062 83.9882C445.245 83.8803 452.977 88.9946 452.977 88.9946L452.306 120.924C452.306 120.924 443.115 125.718 437.959 120.269Z" fill="#FEE3CA"/>
    <path d="M434.411 125.83L437.213 120.269H452.677L455.482 125.83H434.411Z" fill="#F2F2F3"/>
    <path d="M430.163 125.264C430.163 125.264 411.54 127.025 404.006 141.106C396.473 155.187 393.375 173.668 378.75 176.307C369.223 177.958 359.598 178.987 349.935 179.389V191.694C349.935 191.694 390.278 195.216 400.474 183.334C410.67 171.453 418.65 152.533 418.65 152.533C418.65 152.533 418.208 209.736 412.886 224.699C407.565 239.663 449.681 233.938 463.425 234.82C477.169 235.702 482.49 203.137 483.375 187.734C484.26 172.331 489.139 131.849 471.405 127.434C453.671 123.019 430.163 125.264 430.163 125.264Z" fill="#0B4870"/>
    <path d="M426.341 90.45C426.341 90.45 430.039 93.4538 429.255 100.128C428.471 106.802 430.935 106.456 430.935 101.576C430.935 96.6959 430.935 92.0059 433.515 91.6746C436.095 91.3433 437.213 97.3473 435.765 100.236C435.765 100.236 442.043 106.91 445.74 106.91H453.364C453.364 106.91 459.739 98.5682 459.637 88.5554C459.536 78.5426 447.424 73.8712 438.345 74.7608C429.266 75.6505 424.774 85.6707 426.341 90.45Z" fill="#084970"/>
    <path d="M491.786 165.955H438.154C435.076 165.955 432.581 168.432 432.581 171.487V237.474C432.581 240.529 435.076 243.005 438.154 243.005H491.786C494.864 243.005 497.359 240.529 497.359 237.474V171.487C497.359 168.432 494.864 165.955 491.786 165.955Z" fill="#D3D3D3"/>
    <path d="M474.75 194.181H464.97V245.741H474.75V194.181Z" fill="#F2F2F3"/>
    <path d="M464.97 245.741C464.97 253.807 440.04 252.441 440.04 252.441V257.053H463.29C475.905 257.053 474.761 245.726 474.761 245.726" fill="#F2F2F3"/>
    <path d="M473.79 252.456H397.894C396.355 252.456 395.107 253.694 395.107 255.222V261.628C395.107 263.155 396.355 264.393 397.894 264.393H473.79C475.329 264.393 476.576 263.155 476.576 261.628V255.222C476.576 253.694 475.329 252.456 473.79 252.456Z" fill="#D3D3D3"/>
    <path d="M455.212 264.393H418.496V268.13H455.212V264.393Z" fill="#F2F2F3"/>
    <path d="M488.486 348.929C491.545 348.929 494.025 346.467 494.025 343.431C494.025 340.395 491.545 337.933 488.486 337.933C485.427 337.933 482.947 340.395 482.947 343.431C482.947 346.467 485.427 348.929 488.486 348.929Z" fill="#D3D3D3"/>
    <path d="M424.035 348.929C427.094 348.929 429.574 346.467 429.574 343.431C429.574 340.395 427.094 337.933 424.035 337.933C420.976 337.933 418.496 340.395 418.496 343.431C418.496 346.467 420.976 348.929 424.035 348.929Z" fill="#D3D3D3"/>
    <path d="M383.602 348.929C386.661 348.929 389.141 346.467 389.141 343.431C389.141 340.395 386.661 337.933 383.602 337.933C380.543 337.933 378.064 340.395 378.064 343.431C378.064 346.467 380.543 348.929 383.602 348.929Z" fill="#D3D3D3"/>
    <path d="M636.994 340.196H82.125C79.298 340.196 77.0063 342.471 77.0063 345.277C77.0063 348.083 79.298 350.358 82.125 350.358H636.994C639.821 350.358 642.113 348.083 642.113 345.277C642.113 342.471 639.821 340.196 636.994 340.196Z" fill="#CCE9FF"/>
    </svg>