<svg width="357" height="523" viewBox="0 0 357 523" fill="none" xmlns="http://www.w3.org/2000/svg">
<path opacity="0.1" d="M341.467 509.743C320.027 527.46 290.58 524.59 264.615 516.031C183.002 489.16 116.135 415.344 60.2818 336.988C40.0556 308.586 20.4431 278.612 9.55331 243.921C-12.6188 173.31 8.42421 88.8273 58.29 48.2859C75.2647 34.4575 94.7511 25.5742 114.509 18.3173C149.631 5.40877 186.741 -2.64856 223.948 1.94351C250.494 5.21425 276.504 14.8451 301.761 26.3595C372.322 58.5382 439.307 106.706 491.87 173.086C514.927 202.22 535.745 236.371 541.552 275.321C547.358 314.271 534.167 358.364 504.552 372.893C492.27 378.894 478.558 379.492 465.124 379.913C445.354 380.536 425.286 381 406.584 387.809C387.26 394.855 363.21 411.898 363.179 438.496C363.179 467.064 362.88 492.053 341.467 509.743Z" fill="#007CC7"/>
</svg>
