<svg width="357" height="356" viewBox="0 0 357 356" fill="none" xmlns="http://www.w3.org/2000/svg">
<path opacity="0.1" d="M341.467 346.597C320.027 358.653 290.58 356.701 264.616 350.876C183.002 332.589 116.135 282.356 60.2819 229.033C40.0558 209.705 20.4433 189.307 9.55347 165.699C-12.6186 117.647 8.42441 60.1541 58.2902 32.5647C75.2648 23.1542 94.7513 17.1089 114.509 12.1704C149.631 3.38592 186.741 -2.09728 223.948 1.02773C250.494 3.25354 276.504 9.80759 301.762 17.6433C372.322 39.5417 439.307 72.321 491.87 117.494C514.927 137.32 535.745 160.561 541.552 187.067C547.358 213.573 534.167 243.58 504.552 253.467C492.27 257.551 478.558 257.958 465.124 258.245C445.354 258.669 425.286 258.984 406.584 263.618C387.26 268.413 363.21 280.011 363.179 298.111C363.179 317.552 362.88 334.558 341.467 346.597Z" fill="#007CC7"/>
</svg>
