<svg width="76" height="76" viewBox="0 0 76 76" fill="none" xmlns="http://www.w3.org/2000/svg">
<path d="M71.3333 0.5H4.66667C2.3625 0.5 0.5 2.36667 0.5 4.66667V71.3333C0.5 73.6333 2.3625 75.5 4.66667 75.5H71.3333C73.6375 75.5 75.5 73.6333 75.5 71.3333V4.66667C75.5 2.36667 73.6375 0.5 71.3333 0.5ZM22.7458 64.4042H11.6125V28.6125H22.7458V64.4042ZM17.1792 23.725C13.6125 23.725 10.7292 20.8333 10.7292 17.275C10.7292 13.7167 13.6083 10.825 17.1792 10.825C20.7375 10.825 23.6292 13.7125 23.6292 17.275C23.6292 20.8375 20.7375 23.725 17.1792 23.725ZM64.4083 64.4042H53.2875V47C53.2875 42.85 53.2125 37.5125 47.5042 37.5125C41.7125 37.5125 40.8333 42.0375 40.8333 46.7083V64.4083H29.7208V28.6167H40.3875V33.5083H40.5417C42.0208 30.6958 45.6542 27.7292 51.0583 27.7292C62.325 27.7292 64.4042 35.1375 64.4042 44.7792V64.4042H64.4083Z" fill="#F9F4F5"/>
</svg>
