<svg width="112" height="56" viewBox="0 0 112 56" fill="none" xmlns="http://www.w3.org/2000/svg">
<path d="M30.5156 39.7812C29.25 41.1875 27.3984 42.3203 24.9609 43.1797C22.5234 44.0391 19.8516 44.4688 16.9453 44.4688C12.4766 44.4688 8.90625 43.1016 6.23438 40.3672C3.56249 37.6328 2.1328 33.8281 1.9453 28.9531L1.92188 26C1.92188 22.6406 2.51561 19.7109 3.70311 17.2109C4.89061 14.6953 6.58593 12.7656 8.78905 11.4219C11.0078 10.0625 13.5703 9.38281 16.4766 9.38281C20.7266 9.38281 24.0234 10.3594 26.3672 12.3125C28.7266 14.25 30.1016 17.1484 30.4922 21.0078H22.5703C22.2891 19.1016 21.6797 17.7422 20.7422 16.9297C19.8047 16.1172 18.4766 15.7109 16.7578 15.7109C14.6953 15.7109 13.1016 16.5859 11.9766 18.3359C10.8516 20.0859 10.2812 22.5859 10.2656 25.8359V27.8984C10.2656 31.3047 10.8438 33.8672 12 35.5859C13.1719 37.2891 15.0078 38.1406 17.5078 38.1406C19.6484 38.1406 21.2422 37.6641 22.2891 36.7109V31.4141H16.5703V25.7656H30.5156V39.7812ZM33.9375 31.0859C33.9375 28.5547 34.4297 26.3047 35.4141 24.3359C36.3984 22.3516 37.8125 20.8281 39.6562 19.7656C41.5 18.7031 43.6641 18.1719 46.1484 18.1719C49.9453 18.1719 52.9375 19.3516 55.125 21.7109C57.3125 24.0547 58.4062 27.25 58.4062 31.2969V31.5781C58.4062 35.5312 57.3047 38.6719 55.1016 41C52.9141 43.3125 49.9453 44.4688 46.1953 44.4688C42.5859 44.4688 39.6875 43.3906 37.5 41.2344C35.3125 39.0625 34.1328 36.125 33.9609 32.4219L33.9375 31.0859ZM41.8359 31.5781C41.8359 33.9219 42.2031 35.6406 42.9375 36.7344C43.6719 37.8281 44.7578 38.375 46.1953 38.375C49.0078 38.375 50.4453 36.2109 50.5078 31.8828V31.0859C50.5078 26.5391 49.0547 24.2656 46.1484 24.2656C43.5078 24.2656 42.0781 26.2266 41.8594 30.1484L41.8359 31.5781ZM77.3203 32.3516H63.2344V26.2344H77.3203V32.3516Z" fill="#007CC7"/>
<path d="M88.9102 44H82.9688V24.9805H88.9102V44ZM82.6172 20.0762C82.6172 19.2324 82.9219 18.541 83.5312 18.002C84.1406 17.4629 84.9316 17.1934 85.9043 17.1934C86.877 17.1934 87.668 17.4629 88.2773 18.002C88.8867 18.541 89.1914 19.2324 89.1914 20.0762C89.1914 20.9199 88.8867 21.6113 88.2773 22.1504C87.668 22.6895 86.877 22.959 85.9043 22.959C84.9316 22.959 84.1406 22.6895 83.5312 22.1504C82.9219 21.6113 82.6172 20.9199 82.6172 20.0762Z" fill="#007CC7"/>
<path d="M110.367 16.2266H100.125V44H91.8984V16.2266H81.8438V9.875H110.367V16.2266Z" fill="#007CC7"/>
</svg>
