<svg width="100" height="100" viewBox="0 0 100 100" fill="none" xmlns="http://www.w3.org/2000/svg">
<path d="M83.3333 16.6667H25C20.4042 16.6667 16.6667 20.4042 16.6667 25.0001V45.8334H25V33.3334L51.6667 53.3334C52.4083 53.8876 53.2875 54.1668 54.1667 54.1668C55.0458 54.1668 55.925 53.8876 56.6667 53.3334L83.3333 33.3334V70.8334H50V79.1668H83.3333C87.9292 79.1668 91.6667 75.4293 91.6667 70.8334V25.0001C91.6667 20.4042 87.9292 16.6667 83.3333 16.6667ZM54.1667 44.7917L27.775 25.0001H80.5583L54.1667 44.7917Z" fill="#F9F4F5"/>
<path d="M8.33334 50H37.5V58.3333H8.33334V50ZM16.6667 62.5H41.6667V70.8333H16.6667V62.5ZM29.1667 75H45.8333V83.3333H29.1667V75Z" fill="#FFAD05"/>
</svg>
