<svg width="551" height="487" viewBox="0 0 551 487" fill="none" xmlns="http://www.w3.org/2000/svg">
<g clip-path="url(#clip0)">
<path opacity="0.1" d="M446.653 460.197C485.566 460.197 517.111 454.767 517.111 448.07C517.111 441.372 485.566 435.942 446.653 435.942C407.741 435.942 376.196 441.372 376.196 448.07C376.196 454.767 407.741 460.197 446.653 460.197Z" fill="#CEDDF9"/>
<path opacity="0.1" d="M233.325 443.592C290.935 443.592 337.636 440.287 337.636 436.209C337.636 432.132 290.935 428.826 233.325 428.826C175.716 428.826 129.014 432.132 129.014 436.209C129.014 440.287 175.716 443.592 233.325 443.592Z" fill="#CEDDF9"/>
<g opacity="0.1">
<path opacity="0.1" d="M241.012 384.036C243.288 387.909 246.856 390.405 250.874 390.405C257.737 390.405 263.32 383.129 263.32 374.145C263.32 365.161 257.72 357.944 250.874 357.944C247.644 357.944 244.699 359.557 242.488 362.207C241.65 363.222 240.939 364.335 240.372 365.522L240.254 366.228C240.254 366.228 237.604 368.493 233.995 366.412V313.741H182.598C182.182 313.196 181.908 312.557 181.799 311.88C181.691 311.203 181.751 310.51 181.976 309.862C182.359 308.658 183.188 307.647 184.293 307.034C188.163 304.757 190.664 301.187 190.664 297.166C190.664 290.299 183.386 284.713 174.413 284.713C165.44 284.713 158.162 290.281 158.162 297.166C158.162 300.398 159.78 303.351 162.429 305.563C163.442 306.399 164.552 307.108 165.736 307.674L165.807 307.793C166.585 308.545 167.1 309.527 167.278 310.595C167.456 311.662 167.288 312.758 166.797 313.723H143.617V411.261C143.617 417.395 146.053 423.278 150.388 427.615C154.722 431.952 160.602 434.389 166.732 434.389H234.013V382.631C234.561 382.11 235.243 381.751 235.982 381.594C236.722 381.437 237.49 381.488 238.203 381.741C239.398 382.119 240.403 382.94 241.012 384.036Z" fill="black"/>
<path opacity="0.1" d="M154.511 311.689H162.559C160.603 310.185 159.014 308.254 157.914 306.044C156.814 303.834 156.232 301.402 156.212 298.933C156.212 289.688 164.272 282.199 174.211 282.199C184.151 282.199 192.217 289.688 192.217 298.933C192.197 301.402 191.614 303.834 190.515 306.044C189.415 308.254 187.826 310.185 185.869 311.689H234.113V259.724C234.665 259.208 235.346 258.853 236.085 258.696C236.823 258.539 237.59 258.587 238.304 258.834C239.51 259.215 240.524 260.045 241.137 261.153C243.407 265.025 246.974 267.522 250.999 267.522C257.862 267.522 263.445 260.245 263.445 251.267C263.445 242.289 257.886 235.007 250.999 235.007C247.763 235.007 244.817 236.626 242.606 239.271C241.771 240.287 241.06 241.4 240.491 242.586L240.378 242.657C239.583 243.487 238.531 244.021 237.392 244.173C236.254 244.325 235.097 244.085 234.113 243.493V190.833H184.631C184.215 190.289 183.941 189.649 183.832 188.973C183.724 188.296 183.784 187.603 184.008 186.955C184.39 185.75 185.219 184.737 186.326 184.127C190.196 181.855 192.691 178.279 192.691 174.259C192.691 167.392 185.419 161.806 176.446 161.806C167.473 161.806 160.195 167.374 160.195 174.259C160.195 177.497 161.813 180.444 164.456 182.656C165.471 183.492 166.584 184.203 167.769 184.773L167.84 184.886C168.617 185.638 169.133 186.62 169.311 187.688C169.489 188.755 169.321 189.851 168.83 190.816H154.511V188.147H165.084C163.131 186.645 161.546 184.718 160.447 182.512C159.348 180.307 158.765 177.88 158.743 175.415C158.743 166.17 166.803 158.674 176.748 158.674C186.693 158.674 194.748 166.17 194.748 175.415C194.724 177.885 194.138 180.317 193.034 182.526C191.93 184.736 190.337 186.664 188.376 188.165H234.072V135.565C234.622 135.045 235.305 134.686 236.045 134.529C236.785 134.373 237.554 134.423 238.268 134.675C239.472 135.058 240.483 135.888 241.095 136.994C243.365 140.866 246.939 143.363 250.957 143.363C257.82 143.363 263.403 136.087 263.403 127.103C263.403 118.118 257.844 110.848 250.957 110.848C247.721 110.848 244.776 112.461 242.565 115.112C241.727 116.126 241.016 117.239 240.449 118.427L240.336 119.133C240.336 119.133 237.687 121.398 234.072 119.316V70.2566H166.821C160.69 70.2566 154.811 72.6932 150.476 77.0304C146.142 81.3677 143.706 87.2502 143.706 93.384V118.421H143.357C142.997 118.421 142.652 118.564 142.397 118.819C142.142 119.073 142 119.419 142 119.779V131.639C142.001 131.999 142.145 132.343 142.399 132.598C142.653 132.852 142.997 132.996 143.357 132.997H143.706V145.106H143.25C142.89 145.106 142.544 145.249 142.288 145.504C142.033 145.758 141.888 146.104 141.887 146.464V169.111C141.888 169.472 142.033 169.818 142.288 170.072C142.544 170.327 142.89 170.469 143.25 170.469H143.706V179.365H143.333C142.973 179.365 142.628 179.508 142.373 179.762C142.119 180.017 141.976 180.362 141.976 180.723V188.017H141.679V203.388C141.679 203.566 141.713 203.743 141.781 203.908C141.849 204.073 141.949 204.223 142.075 204.35C142.201 204.476 142.351 204.576 142.516 204.644C142.681 204.712 142.858 204.746 143.037 204.746H143.44V311.689H154.511Z" fill="black"/>
<path opacity="0.1" d="M330.376 154.244C330.376 153.884 330.233 153.538 329.979 153.282C329.724 153.026 329.379 152.882 329.019 152.881H328.201V151.392H327.756V92.2392C327.757 89.3187 327.183 86.4266 326.066 83.7282C324.949 81.0298 323.312 78.578 321.248 76.5129C319.184 74.4478 316.734 72.8098 314.037 71.6925C311.34 70.5752 308.45 70.0005 305.531 70.0013H238.855V115.07C240.378 113.048 242.347 111.404 244.608 110.268C246.87 109.131 249.363 108.532 251.894 108.517C261.205 108.517 268.755 116.588 268.755 126.539C268.755 136.49 261.205 144.561 251.894 144.561C249.363 144.547 246.869 143.948 244.608 142.811C242.346 141.675 240.377 140.031 238.855 138.008V188.016H292.788C290.834 186.508 289.248 184.575 288.151 182.363C287.053 180.151 286.472 177.718 286.453 175.249C286.453 165.992 294.495 158.49 304.423 158.49C308.835 158.466 313.113 160.008 316.495 162.843C318.352 164.327 319.851 166.211 320.881 168.354C321.912 170.497 322.446 172.844 322.446 175.222C322.446 177.6 321.912 179.948 320.881 182.091C319.851 184.233 318.352 186.117 316.495 187.601V187.999H328.201V187.957H330.376V154.244Z" fill="black"/>
<path opacity="0.1" d="M312.471 309.026V303.096C312.716 302.74 312.939 302.369 313.141 301.987C313.935 300.542 314.354 298.922 314.362 297.273C314.36 296.174 314.172 295.083 313.805 294.047C313.481 293.124 313.033 292.25 312.471 291.449C309.739 287.518 304.34 284.837 298.117 284.837C289.138 284.837 281.865 290.406 281.865 297.291C281.865 300.528 283.483 303.476 286.127 305.688C287.142 306.524 288.255 307.235 289.44 307.805L289.511 307.917C290.287 308.67 290.802 309.652 290.98 310.72C291.159 311.787 290.99 312.883 290.501 313.847H238.215V362.474C239.716 360.464 241.662 358.829 243.901 357.698C246.139 356.566 248.609 355.968 251.117 355.951C260.357 355.951 267.843 364.016 267.843 373.961C267.843 383.906 260.357 391.977 251.117 391.977C248.609 391.96 246.139 391.362 243.901 390.23C241.662 389.098 239.716 387.464 238.215 385.454V424.705H298.211C301.987 424.705 305.609 423.207 308.282 420.539C310.955 417.87 312.462 414.251 312.471 410.473V313.865V410.407C312.471 414.191 310.969 417.821 308.295 420.496C305.62 423.172 301.993 424.675 298.211 424.675H238.215V434.163H300.446C306.576 434.163 312.455 431.727 316.79 427.39C321.125 423.052 323.56 417.17 323.56 411.036V313.865V311.315H312.471V309.026Z" fill="black"/>
</g>
<path d="M169.559 422.499C165.777 422.499 162.15 420.996 159.476 418.32C156.802 415.644 155.299 412.015 155.299 408.231V311.369H144.21V408.889C144.21 415.023 146.645 420.906 150.98 425.243C155.315 429.58 161.194 432.017 167.325 432.017H234.605V422.529L169.559 422.499Z" fill="#3A3768"/>
<path d="M238.754 379.369C239.96 379.749 240.972 380.58 241.581 381.688C243.857 385.56 247.425 388.057 251.443 388.057C258.306 388.057 263.889 380.781 263.889 371.796C263.889 362.812 258.312 355.572 251.467 355.572C248.237 355.572 245.291 357.185 243.081 359.835C242.242 360.85 241.532 361.963 240.965 363.15L240.846 363.856C240.846 363.856 238.197 366.121 234.587 364.04V311.369H183.191C182.775 310.824 182.501 310.185 182.392 309.508C182.283 308.831 182.344 308.138 182.568 307.49C182.952 306.286 183.781 305.275 184.886 304.662C188.756 302.385 191.257 298.815 191.257 294.794C191.257 287.927 183.979 282.341 175.006 282.341C166.033 282.341 158.754 287.909 158.754 294.794C158.754 298.026 160.373 300.979 163.022 303.191C164.034 304.027 165.145 304.735 166.329 305.302L166.4 305.421C167.177 306.173 167.693 307.155 167.871 308.223C168.049 309.29 167.88 310.386 167.39 311.351H155.299V408.231C155.299 412.015 156.802 415.644 159.476 418.32C162.15 420.996 165.777 422.499 169.559 422.499H234.605V380.259C235.15 379.746 235.824 379.391 236.556 379.235C237.287 379.078 238.047 379.124 238.754 379.369Z" fill="#CEDDF9"/>
<path d="M144.015 185.597H142.254V188.467H144.015V185.597Z" fill="#3A3768"/>
<path d="M155.104 185.597H145.484V188.467H155.104V185.597Z" fill="#3A3768"/>
<path d="M145.484 185.597H144.015V188.467H145.484V185.597Z" fill="#3A3768"/>
<path d="M143.612 202.326H144.015V188.461H142.237V200.968C142.236 201.148 142.271 201.326 142.34 201.493C142.409 201.659 142.511 201.81 142.639 201.936C142.767 202.063 142.919 202.162 143.086 202.229C143.253 202.296 143.432 202.329 143.612 202.326Z" fill="#3A3768"/>
<path d="M155.104 188.461H145.484V200.968C145.484 201.147 145.449 201.324 145.381 201.489C145.312 201.654 145.211 201.804 145.085 201.93C144.958 202.056 144.808 202.156 144.642 202.224C144.477 202.292 144.3 202.327 144.121 202.326H144.015V309.317H155.104V188.461Z" fill="#3A3768"/>
<path d="M144.015 202.326H144.121C144.3 202.327 144.477 202.292 144.642 202.224C144.808 202.156 144.958 202.056 145.085 201.93C145.211 201.804 145.312 201.654 145.381 201.489C145.449 201.324 145.484 201.147 145.484 200.968V188.461H144.015V202.326Z" fill="#3A3768"/>
<path d="M156.805 296.537C156.805 287.292 164.865 279.803 174.804 279.803C184.743 279.803 192.81 287.292 192.81 296.537C192.793 299.01 192.213 301.447 191.113 303.661C190.013 305.876 188.422 307.81 186.462 309.317H234.706V257.351C235.258 256.836 235.939 256.48 236.678 256.324C237.416 256.167 238.183 256.215 238.896 256.462C240.103 256.843 241.117 257.673 241.729 258.78C243.999 262.653 247.567 265.149 251.591 265.149C258.455 265.149 264.038 257.873 264.038 248.895C264.038 239.917 258.478 232.635 251.591 232.635C248.355 232.635 245.41 234.253 243.199 236.898C242.363 237.914 241.653 239.027 241.083 240.213L240.971 240.284C240.176 241.114 239.123 241.649 237.985 241.801C236.846 241.953 235.69 241.713 234.706 241.121V188.461H185.223C184.808 187.916 184.533 187.277 184.425 186.6C184.316 185.924 184.377 185.23 184.601 184.583C184.982 183.377 185.812 182.365 186.918 181.754C190.789 179.483 193.284 175.907 193.284 171.887C193.284 165.019 186.012 159.433 177.039 159.433C168.065 159.433 160.787 165.002 160.787 171.887C160.787 175.124 162.405 178.072 165.049 180.284C166.064 181.12 167.176 181.831 168.362 182.401L168.433 182.513C169.21 183.266 169.726 184.248 169.904 185.315C170.082 186.383 169.913 187.479 169.423 188.443H155.104V309.317H163.152C161.192 307.81 159.602 305.876 158.502 303.661C157.402 301.447 156.821 299.01 156.805 296.537Z" fill="#CEDDF9"/>
<path d="M145.781 178.107C145.781 177.928 145.745 177.751 145.677 177.586C145.608 177.421 145.508 177.271 145.381 177.145C145.254 177.019 145.104 176.919 144.939 176.851C144.773 176.783 144.596 176.748 144.418 176.749H144.311V185.597H145.781V178.107Z" fill="#3A3768"/>
<path d="M144.258 116.037H143.961C143.783 116.037 143.607 116.072 143.442 116.14C143.277 116.208 143.128 116.308 143.002 116.434C142.876 116.561 142.776 116.71 142.707 116.875C142.639 117.04 142.604 117.216 142.604 117.395V129.255C142.606 129.615 142.749 129.959 143.003 130.214C143.257 130.468 143.602 130.611 143.961 130.613H144.311V116.043L144.258 116.037Z" fill="#3A3768"/>
<path d="M143.855 142.71C143.494 142.71 143.148 142.853 142.893 143.108C142.637 143.362 142.493 143.708 142.491 144.068V166.715C142.493 167.076 142.637 167.422 142.893 167.676C143.148 167.931 143.494 168.073 143.855 168.073H144.311V142.71H143.855Z" fill="#3A3768"/>
<path d="M144.311 176.945H143.926C143.566 176.945 143.221 177.088 142.966 177.343C142.711 177.597 142.568 177.943 142.568 178.303V185.793H144.347L144.311 176.945Z" fill="#3A3768"/>
<path d="M144.311 91.0057V116.043C144.661 116.055 144.993 116.203 145.236 116.455C145.479 116.707 145.615 117.044 145.615 117.395V129.255C145.614 129.605 145.477 129.941 145.234 130.193C144.991 130.445 144.661 130.593 144.311 130.607V142.716H144.518C144.697 142.716 144.873 142.751 145.038 142.82C145.202 142.888 145.352 142.988 145.478 143.114C145.604 143.24 145.704 143.39 145.772 143.555C145.84 143.719 145.876 143.896 145.876 144.074V166.721C145.876 167.082 145.733 167.427 145.478 167.682C145.224 167.936 144.878 168.079 144.518 168.079H144.299V176.975H144.406C144.766 176.975 145.112 177.117 145.368 177.372C145.623 177.626 145.767 177.972 145.769 178.333V185.793H155.388V91.6818C155.388 87.8987 156.89 84.2705 159.563 81.595C162.236 78.9194 165.861 77.4155 169.642 77.4139H188.969V79.8927C188.969 83.0084 190.206 85.9964 192.408 88.1995C194.61 90.4026 197.596 91.6403 200.71 91.6403H234.712V83.8837H219.059C218.454 83.8806 217.874 83.6394 217.445 83.2123C217.016 82.7851 216.772 82.2062 216.766 81.6006V81.1025C216.767 80.4943 217.009 79.9115 217.439 79.4814C217.869 79.0514 218.452 78.8091 219.059 78.8075H234.682V67.8842H167.413C161.286 67.8874 155.411 70.3246 151.079 74.6602C146.747 78.9958 144.312 84.875 144.311 91.0057Z" fill="#3A3768"/>
<path d="M145.615 129.249V117.389C145.615 117.038 145.479 116.701 145.236 116.449C144.993 116.197 144.661 116.049 144.311 116.037V130.595C144.66 130.581 144.989 130.434 145.232 130.183C145.475 129.933 145.612 129.598 145.615 129.249Z" fill="#3A3768"/>
<path d="M145.887 166.715V144.068C145.887 143.89 145.852 143.713 145.784 143.549C145.716 143.384 145.616 143.234 145.49 143.108C145.364 142.982 145.214 142.882 145.05 142.814C144.885 142.745 144.708 142.71 144.53 142.71H144.311V168.073H144.518C144.698 168.075 144.875 168.041 145.041 167.973C145.207 167.906 145.358 167.806 145.486 167.68C145.613 167.554 145.714 167.403 145.783 167.238C145.852 167.072 145.887 166.895 145.887 166.715Z" fill="#3A3768"/>
<path d="M159.335 173.043C159.335 163.798 167.396 156.302 177.341 156.302C187.286 156.302 195.34 163.798 195.34 173.043C195.317 175.513 194.731 177.945 193.627 180.154C192.523 182.363 190.93 184.292 188.969 185.793H234.665V133.193C235.214 132.672 235.897 132.314 236.638 132.157C237.378 132 238.147 132.051 238.861 132.303C240.065 132.686 241.076 133.516 241.688 134.622C243.958 138.494 247.532 140.991 251.55 140.991C258.413 140.991 263.996 133.714 263.996 124.73C263.996 115.746 258.437 108.476 251.55 108.476C248.314 108.476 245.368 110.089 243.158 112.74C242.319 113.754 241.609 114.867 241.042 116.055L240.929 116.76C240.929 116.76 238.28 119.026 234.665 116.944V91.6225H200.68C197.572 91.6146 194.593 90.3735 192.397 88.1712C190.202 85.969 188.969 82.9854 188.969 79.8749V77.3961H169.654C167.78 77.3969 165.925 77.7671 164.195 78.4856C162.464 79.2041 160.892 80.2568 159.568 81.5835C158.244 82.9102 157.195 84.4849 156.48 86.2176C155.765 87.9503 155.398 89.8071 155.4 91.6818V185.793H165.677C163.722 184.289 162.134 182.359 161.036 180.15C159.937 177.941 159.355 175.51 159.335 173.043Z" fill="#CEDDF9"/>
<path d="M219.059 78.7897C218.452 78.7913 217.869 79.0336 217.439 79.4636C217.009 79.8937 216.767 80.4765 216.766 81.0847V81.6006C216.767 82.2093 217.009 82.7928 217.439 83.2237C217.868 83.6547 218.451 83.8983 219.059 83.9015H234.682V78.8075L219.059 78.7897Z" fill="#E6E8EC"/>
<path d="M324.793 150.437V185.638H328.794V149.02H326.63C325.617 149.02 324.793 149.655 324.793 150.437Z" fill="#3A3768"/>
<path d="M244.189 67.6292H239.447V78.3034H244.189V67.6292Z" fill="#3A3768"/>
<path d="M244.189 83.6405H239.447V91.3497H244.189V83.6405Z" fill="#3A3768"/>
<path d="M244.189 78.3034H239.447V83.6405H244.189V78.3034Z" fill="#E6E8EC"/>
<path d="M329.611 150.508H328.497V185.597H330.969V151.872C330.969 151.512 330.826 151.166 330.571 150.91C330.317 150.654 329.972 150.51 329.611 150.508Z" fill="#3A3768"/>
<path d="M244.183 78.3034C245.445 78.5881 246.554 80.889 246.554 80.889V81.3871C246.554 81.3871 245.439 83.6821 244.183 83.6405V91.3497H270.966C274.08 91.3481 277.067 90.1091 279.268 87.9051C281.47 85.701 282.707 82.7124 282.707 79.5962V77.1174H302.858C306.633 77.1253 310.251 78.6313 312.918 81.3051C315.585 83.9789 317.082 87.602 317.082 91.3793V160.471C318.939 161.955 320.438 163.839 321.468 165.982C322.498 168.125 323.033 170.472 323.033 172.85C323.033 175.228 322.498 177.576 321.468 179.719C320.438 181.861 318.939 183.745 317.082 185.229V185.627H325.38V150.823C325.38 150.8 325.384 150.777 325.393 150.756C325.402 150.734 325.416 150.715 325.432 150.699C325.449 150.683 325.468 150.67 325.49 150.662C325.511 150.654 325.534 150.65 325.558 150.651H328.343V89.8672C328.344 86.9466 327.77 84.0545 326.653 81.3562C325.536 78.6578 323.899 76.206 321.835 74.1408C319.771 72.0757 317.321 70.4377 314.624 69.3204C311.927 68.2031 309.037 67.6285 306.118 67.6293H243.596V78.3034H244.183ZM253.156 78.2501C253.727 78.2501 254.285 78.4195 254.76 78.7368C255.234 79.0541 255.604 79.5052 255.823 80.0329C256.041 80.5606 256.098 81.1412 255.987 81.7015C255.876 82.2617 255.601 82.7762 255.197 83.1801C254.793 83.584 254.279 83.8591 253.719 83.9705C253.159 84.0819 252.579 84.0248 252.052 83.8062C251.524 83.5876 251.073 83.2174 250.756 82.7425C250.439 82.2676 250.27 81.7092 250.27 81.138C250.27 80.3721 250.574 79.6375 251.115 79.0959C251.656 78.5543 252.391 78.2501 253.156 78.2501Z" fill="#3A3768"/>
<path d="M252.457 106.139C261.768 106.139 269.318 114.21 269.318 124.161C269.318 134.112 261.768 142.183 252.457 142.183C249.926 142.169 247.432 141.57 245.171 140.433C242.909 139.297 240.94 137.653 239.418 135.63V185.638H293.351C291.397 184.13 289.811 182.197 288.714 179.985C287.616 177.773 287.036 175.34 287.016 172.871C287.016 163.614 295.058 156.112 304.986 156.112C309.409 156.082 313.699 157.627 317.088 160.471V91.3793C317.088 87.602 315.591 83.9789 312.924 81.3051C310.257 78.6313 306.639 77.1253 302.864 77.1174H282.713V79.5962C282.713 82.7124 281.476 85.701 279.274 87.9051C277.073 90.1091 274.086 91.3481 270.972 91.3497H239.447V112.698C240.967 110.679 242.931 109.036 245.187 107.899C247.443 106.762 249.931 106.159 252.457 106.139Z" fill="#CEDDF9"/>
<path d="M244.183 83.6405C244.792 83.6413 245.377 83.4077 245.819 82.9882C246.26 82.5687 246.523 81.9954 246.554 81.3871V80.889C246.485 80.2617 246.218 79.6727 245.792 79.2077C245.365 78.7427 244.802 78.4259 244.183 78.3034H243.59V83.6405H244.183Z" fill="#E6E8EC"/>
<path d="M253.619 83.9759C255.192 83.7203 256.261 82.2369 256.005 80.6625C255.75 79.0881 254.267 78.019 252.694 78.2746C251.12 78.5301 250.052 80.0136 250.307 81.5879C250.563 83.1623 252.045 84.2314 253.619 83.9759Z" fill="#E6E8EC"/>
<path d="M313.064 306.654V300.724C314.293 299.031 314.954 296.993 314.954 294.901C314.954 292.809 314.293 290.77 313.064 289.077V306.654Z" fill="#3A3768"/>
<path d="M324.153 308.943H313.064V311.493H324.153V308.943Z" fill="#3A3768"/>
<path d="M308.589 304.78C307.484 305.392 306.655 306.404 306.272 307.609C306.046 308.257 305.985 308.952 306.094 309.629C306.203 310.307 306.477 310.948 306.894 311.493H313.064V308.943H310.693C311.553 308.255 312.346 307.489 313.064 306.654V300.724C311.884 302.385 310.357 303.769 308.589 304.78Z" fill="#CEDDF9"/>
<path d="M310.681 308.943H313.052V306.654C312.334 307.489 311.541 308.255 310.681 308.943Z" fill="#CEDDF9"/>
<path d="M314.954 294.913C314.94 292.823 314.28 290.789 313.064 289.089V300.73C314.277 299.032 314.937 297 314.954 294.913Z" fill="#3A3768"/>
<path d="M324.153 311.493V408.694C324.153 414.827 321.718 420.71 317.383 425.047C313.048 429.384 307.169 431.821 301.038 431.821H238.807V422.333H298.804C302.586 422.333 306.213 420.83 308.887 418.154C311.562 415.478 313.064 411.849 313.064 408.065V311.493H324.153Z" fill="#3A3768"/>
<path d="M306.272 307.609C306.655 306.404 307.484 305.392 308.589 304.78C310.357 303.771 311.883 302.389 313.064 300.73V289.089C310.332 285.158 304.932 282.477 298.709 282.477C289.73 282.477 282.458 288.046 282.458 294.93C282.458 298.168 284.076 301.115 286.719 303.327C287.735 304.164 288.847 304.874 290.032 305.444L290.104 305.557C290.88 306.31 291.395 307.292 291.573 308.359C291.751 309.426 291.583 310.523 291.093 311.487H238.807V360.114C240.309 358.104 242.255 356.469 244.494 355.337C246.732 354.206 249.202 353.608 251.71 353.591C260.95 353.591 268.435 361.656 268.435 371.601C268.435 381.546 260.95 389.616 251.71 389.616C249.202 389.599 246.732 389.002 244.494 387.87C242.255 386.738 240.309 385.103 238.807 383.093V422.345H298.804C302.58 422.345 306.201 420.846 308.875 418.178C311.548 415.51 313.054 411.89 313.064 408.112V311.493H306.912C306.492 310.949 306.214 310.31 306.102 309.632C305.991 308.954 306.049 308.259 306.272 307.609Z" fill="#CEDDF9"/>
<path d="M419.035 160.352C422.342 158.864 424.789 156.356 425.625 153.141C425.726 152.752 425.802 152.355 425.85 151.955C425.998 151.585 426.125 151.207 426.23 150.823C427.065 147.597 426.147 144.258 423.966 141.406L419.633 158.01L419.035 160.352Z" fill="url(#paint0_linear)"/>
<path d="M519.043 154.12C518.367 150.153 505.85 141.56 505.85 141.56C505.85 141.56 500.32 138.595 497.392 135.167C495.52 132.985 494.933 133.009 494.755 133.305C494.634 133.228 494.495 133.181 494.352 133.169C494.233 133.086 494.121 133.009 494.014 132.92C494.031 132.752 493.995 132.584 493.911 132.438C493.827 132.292 493.699 132.176 493.546 132.107C493.404 132.024 493.261 131.918 493.119 131.817C492.171 130.222 491.833 127.962 491.72 125.993C491.578 123.509 488.757 124.131 487.791 124.41C487.127 123.165 486.481 121.872 485.871 120.579C486.141 120.16 486.365 119.712 486.54 119.245C488.283 115.456 487.904 111.109 488.662 107.1C489.208 104.2 490.345 101.17 490.12 98.3472C490.12 98.282 490.12 98.2108 490.12 98.1397C490.12 98.1397 490.12 98.1693 490.12 98.1812C490.059 97.474 489.897 96.7792 489.64 96.1175C489.136 94.8485 488.259 93.7455 487.862 92.4349C487.228 90.5195 487.631 88.4084 487.104 86.4692C486.446 84.0141 484.371 82.1165 482.024 81.0313C479.677 79.9461 477.064 79.5725 474.491 79.2523C468.061 78.4458 461.227 77.9654 455.36 80.6696C454.822 80.9885 454.207 81.1546 453.582 81.1499C453.003 80.99 452.454 80.7355 451.958 80.3968C450.381 79.614 448.402 80.1121 446.991 81.1558C445.581 82.1995 444.62 83.7058 443.69 85.1646C442.759 86.6234 441.74 88.1296 440.282 89.0844C438.569 90.2289 436.305 90.6144 434.948 92.1562C434.343 92.8871 433.961 93.7762 433.846 94.718C433.846 94.718 433.846 94.6883 433.846 94.6765C433.84 94.7891 433.84 94.9019 433.846 95.0145C433.846 95.1034 433.846 95.1983 433.846 95.2873C433.846 95.3762 433.846 95.4355 433.846 95.5067C433.846 95.7617 433.846 96.0108 433.846 96.2598C434.035 97.7085 434.42 99.1248 434.989 100.47C435.263 101.474 435.799 102.387 436.542 103.115C438.605 104.793 441.876 103.21 444.366 104.147C444.585 104.224 444.792 104.325 445 104.42C445 104.515 444.935 104.609 444.905 104.71C444.372 106.522 444.102 108.402 444.105 110.29C444.105 121.427 453.345 130.453 464.742 130.453C465.169 130.453 465.589 130.453 466.01 130.405C466.069 130.625 466.135 130.85 466.188 131.064C466.822 133.524 467.023 136.077 466.781 138.607L466.656 137.504C466.379 137.371 466.092 137.262 465.797 137.178C464.972 136.903 464.106 136.77 463.236 136.786C460.433 136.751 456.213 137.877 451.709 143.345C451.709 143.345 445.96 146.541 444.271 147.312C444.132 147.396 444.023 147.52 443.957 147.668C443.957 147.668 436.27 159.285 435.475 163.703C434.681 168.121 433.697 173.191 433.697 173.191C433.697 173.191 431.777 178.92 430.538 181.458C429.3 183.996 428.168 186.415 428.061 187.518C427.954 188.621 428.511 191.041 426.141 192.583C423.77 194.124 423.177 198.311 423.177 198.311C423.177 198.311 421.992 199.426 420.315 200.837H420.255L426.449 177.075L427.557 177.354C427.822 177.42 428.101 177.408 428.359 177.32C428.618 177.231 428.846 177.07 429.015 176.856C429.13 176.711 429.213 176.543 429.258 176.364L430.509 171.549L431.013 169.633L431.113 169.242L431.842 166.449L429.377 165.856L426.49 165.138L418.335 163.08L419.046 160.352L419.639 158.04L423.367 143.724L423.96 141.418C421.589 138.346 417.814 135.849 413.173 134.693C404.224 132.469 395.559 136.086 393.816 142.77C393.713 143.159 393.636 143.556 393.585 143.956C393.435 144.322 393.31 144.699 393.212 145.082C392.91 146.243 392.829 147.45 392.975 148.64C392.998 148.834 393.028 149.032 393.063 149.233C393.419 151.08 394.196 152.819 395.333 154.316C396.134 155.385 397.064 156.351 398.101 157.192L398.143 157.322C398.583 158.042 398.848 158.854 398.919 159.694C398.919 159.813 398.919 159.937 398.919 160.062C398.72 160.42 398.482 160.754 398.208 161.058L343.528 147.46L342.935 149.767L330.619 197.119C332.224 195.884 334.028 194.932 335.953 194.302C336.709 194.052 337.481 193.854 338.265 193.709L338.543 193.662C340.747 193.304 343.002 193.396 345.169 193.935C352.08 195.654 356.857 201.543 357.746 208.469C357.861 209.344 357.91 210.226 357.894 211.108C357.877 212.234 357.758 213.355 357.538 214.459C354.575 223.461 345.471 228.899 336.629 226.699C334.151 226.073 331.85 224.883 329.907 223.222C327.964 221.561 326.431 219.473 325.427 217.121L324.834 219.434L312.127 268.031L360.555 280.081L361.077 277.751H361.154C359.719 275.973 358.679 273.911 358.103 271.7C357.527 269.49 357.427 267.182 357.811 264.93C357.811 264.853 357.858 264.782 357.888 264.705C357.947 264.533 358.013 264.367 358.078 264.201C358.409 263.389 358.806 262.606 359.263 261.858C359.5 261.473 359.749 261.099 360.016 260.737C360.182 260.512 360.354 260.293 360.531 260.079C361.384 259.046 362.357 258.118 363.43 257.316L363.773 257.067C364.165 256.788 364.568 256.521 364.959 256.272C365.202 256.13 365.451 255.987 365.7 255.857C368.568 254.341 371.773 253.576 375.016 253.633C376.575 253.654 378.126 253.853 379.639 254.226C384.312 255.349 388.392 258.187 391.072 262.178C391.427 262.713 391.751 263.268 392.044 263.839C392.917 265.533 393.484 267.368 393.721 269.259C393.907 270.769 393.867 272.298 393.603 273.795C392.451 277.112 390.249 279.962 387.332 281.914L386.74 284.143H386.805L386.716 284.209L386.123 286.433L397.183 289.184L412.847 229.26C417.073 228.768 419.236 226.888 419.236 226.616C419.236 226.343 424.315 223.526 427.131 222.755C428.529 222.375 430.147 222.103 431.433 221.83C429.916 229.367 428.47 236.655 428.6 237.082C428.642 237.248 428.914 236.987 429.329 236.418C429.289 236.637 429.271 236.859 429.276 237.082C429.276 237.195 429.436 237.112 429.643 236.881L429.614 237.023C429.614 237.023 420.819 254.048 420.131 255.999C419.444 257.95 420.297 262.943 423.005 264.598C423.531 264.93 423.999 265.344 424.392 265.825L424.072 266.46C423.065 268.506 422.17 270.783 422.33 272.2C422.542 273.994 422.122 275.806 421.144 277.324C421.144 277.324 413.529 300.872 413.7 307.65C413.872 314.429 410.992 329.301 410.992 329.301C410.992 329.301 407.863 338.884 409.724 341.612C411.585 344.34 413.7 356.242 413.7 356.242C413.7 356.242 415.141 358.97 415.052 361.282C414.963 363.595 416.409 367.806 416.409 367.806L421.15 384.908C421.15 384.908 420.641 389.456 422.419 392.676C424.197 395.896 424.025 394.906 423.177 400.528C422.33 406.15 424.197 411.35 427.237 412.981C428.423 413.622 428.482 414.6 428.114 415.555C427.338 415.252 426.692 416.859 426.307 418.158L425.916 418.532L426.176 418.597C426.01 419.19 425.916 419.688 425.916 419.688C425.916 419.688 417.968 426.3 417.458 428.696C416.948 431.092 411.365 432.331 411.365 432.331C411.365 432.331 402.908 434.644 400.697 435.8C400.064 436.088 399.517 436.535 399.108 437.097C398.699 437.659 398.442 438.318 398.362 439.008C398.263 440.097 398.367 441.195 398.67 442.246C399.512 445.632 411.353 445.964 417.043 445.057C422.733 444.15 434.462 440.841 434.462 440.841C434.462 440.841 446.813 439.655 450.464 438.196C454.115 436.737 451.223 432.906 451.223 432.906C451.223 432.906 451.223 432.782 451.223 432.55C451.312 431.169 451.567 426.158 450.689 424.841C450.032 423.821 450.049 421.283 450.144 419.67C452.616 415.223 447.311 401.88 447.311 401.88C447.311 401.88 448.325 388.834 447.649 386.924C446.973 385.015 444.093 368.825 444.093 368.825C444.093 368.825 442.315 361.472 442.996 360.233C443.678 358.993 442.57 355.435 442.57 355.435C442.57 355.435 439.672 351.48 439.932 350.235C440.193 348.989 439.085 346.765 439.085 346.765C439.085 346.765 447.714 333.873 446.95 331.478C446.185 329.082 447.293 325.198 447.293 325.198C447.293 325.198 448.378 323.371 449.664 321.183C451.264 318.503 453.22 315.294 453.86 314.292C454.69 313.017 456.687 307.591 457.802 304.466C458.276 303.138 458.596 302.224 458.596 302.224C458.596 302.224 459.947 326.538 461.132 328.999C462.318 331.46 464.096 351.065 464.096 351.065C464.753 352.805 465.042 354.663 464.943 356.52C464.777 359.574 467.652 372.882 467.652 372.882C467.652 372.882 468.92 382.299 468.073 384.777C467.225 387.256 467.907 405.533 467.907 405.533C467.907 405.533 463.254 409.091 462.069 411.813C460.883 414.535 462.235 421.977 462.235 421.977L462.78 422.232C462.344 423.266 462.02 424.343 461.814 425.446C461.648 427.018 459.105 434.128 459.36 435.118C459.615 436.109 458.264 439.168 458.092 440.734C457.92 442.3 455.81 444.618 455.638 445.448C455.371 446.191 455.06 446.918 454.708 447.625C454.248 448.71 453.881 449.833 453.611 450.981C452.764 454.456 462.827 455.031 462.827 455.031C477.716 457.759 480.424 446.605 480.424 446.605C480.424 446.605 482.285 436.69 482.961 435.931C483.043 435.79 483.096 435.633 483.115 435.471C483.135 435.309 483.12 435.144 483.073 434.988C482.687 433.301 481.956 431.712 480.928 430.321C480.454 429.769 480.424 428.352 480.501 427.083C480.932 427.041 481.358 426.962 481.775 426.846C487.779 425.114 485.331 415.11 485.331 415.11C485.331 415.11 489.391 408.504 489.391 405.942C489.391 403.38 490.831 395.529 490.831 395.529C495.994 386.272 493.961 363.797 494.808 361.976C495.656 360.156 493.03 353.383 490.914 350.324C488.799 347.264 489.646 339.003 490.914 336.607C492.183 334.211 489.646 325.933 489.646 325.933C489.646 325.933 492.1 309.922 492.017 307.419C491.934 304.917 494.133 297.587 494.133 297.587C494.133 297.587 496.331 293.786 495.822 292.629C495.312 291.473 497.511 288.478 496.924 287.174C496.337 285.869 497.428 281.801 498.53 279.405C499.093 278.178 499.793 274.798 500.308 271.791C500.368 271.459 500.427 271.127 500.48 270.801C502.946 272.36 505.222 273.523 506.028 273.208C507.539 272.615 505.133 264.906 503.485 260.103C503.77 259.889 503.888 259.729 503.77 259.658C502.756 258.994 503.882 256.017 503.882 256.017C509.862 252.494 507.829 249.85 505.915 248.308C504.001 246.766 505.239 242.378 504.67 240.599C504.101 238.82 505.352 230.796 506.366 224.955C506.576 223.686 506.566 222.39 506.336 221.124C507.42 219.47 508.541 217.738 509.524 216.137C512.903 210.628 520.122 184.405 520.122 184.405L520.074 184.269C520.779 182.875 521.307 181.742 521.591 180.989C523.778 175.296 519.719 158.099 519.043 154.12ZM466.484 139.022L466.638 138.951C466.638 138.992 466.638 139.034 466.638 139.075L466.484 139.022ZM433.668 420.317C433.299 420.319 432.934 420.247 432.595 420.103L433.668 420.317Z" fill="url(#paint1_linear)"/>
<path d="M371.01 229.195C375.888 231.045 387.226 231.247 392.263 231.247C393.792 231.247 394.741 231.247 394.741 231.247L397.971 224.664L394.741 219.179C394.741 219.179 391.777 218.361 387.842 217.649C382.034 216.605 374.086 215.787 370.299 218.135C363.945 222.067 364.656 226.782 371.01 229.195Z" fill="#FEC2BE"/>
<path opacity="0.1" d="M392.257 231.247C393.786 231.247 394.735 231.247 394.735 231.247L397.965 224.664L394.741 219.179C394.741 219.179 391.777 218.361 387.842 217.649C391.036 219.998 398.718 225.109 392.257 231.247Z" fill="black"/>
<path d="M445.758 150.461L444.336 148.812C444.336 148.812 436.993 160.435 436.222 164.824C435.452 169.212 434.444 174.253 434.444 174.253C434.444 174.253 432.583 179.957 431.374 182.478C430.165 184.998 429.075 187.412 428.968 188.509C428.861 189.606 429.406 192.019 427.101 193.555C424.795 195.091 424.256 199.26 424.256 199.26C424.256 199.26 415.923 207.372 411.537 207.562C407.151 207.752 394.551 209.976 394.99 212.17C395.428 214.364 389.733 215.674 387.427 216.226C385.122 216.777 402.244 223.342 392.251 231.798C392.251 231.798 398.605 233.115 399.263 234.645C399.921 236.175 406.606 233.773 406.606 233.773C406.606 233.773 408.034 230.369 412.966 230.15C417.897 229.93 420.416 227.736 420.416 227.41C420.416 227.084 425.347 224.338 428.12 223.573C430.894 222.808 434.474 222.476 434.586 221.705C434.699 220.934 451.027 150.431 451.027 150.431L445.758 150.461Z" fill="#4C4981"/>
<path opacity="0.05" d="M445.758 150.461L444.336 148.812C444.336 148.812 436.993 160.435 436.222 164.824C435.452 169.212 434.444 174.253 434.444 174.253C434.444 174.253 432.583 179.957 431.374 182.478C430.165 184.998 429.075 187.412 428.968 188.509C428.861 189.606 429.406 192.019 427.101 193.555C424.795 195.091 424.256 199.26 424.256 199.26C424.256 199.26 415.923 207.372 411.537 207.562C407.151 207.752 394.551 209.976 394.99 212.17C395.428 214.364 389.733 215.674 387.427 216.226C385.122 216.777 402.244 223.342 392.251 231.798C392.251 231.798 398.605 233.115 399.263 234.645C399.921 236.175 406.606 233.773 406.606 233.773C406.606 233.773 408.034 230.369 412.966 230.15C417.897 229.93 420.416 227.736 420.416 227.41C420.416 227.084 425.347 224.338 428.12 223.573C430.894 222.808 434.474 222.476 434.586 221.705C434.699 220.934 451.027 150.431 451.027 150.431L445.758 150.461Z" fill="black"/>
<path d="M462.827 454.765C477.295 457.481 479.926 446.374 479.926 446.374C479.926 446.374 481.734 436.506 482.392 435.765C482.474 435.624 482.526 435.469 482.545 435.308C482.565 435.147 482.551 434.983 482.504 434.828C482.125 433.155 481.415 431.574 480.418 430.178C479.517 429.111 480.252 424.669 480.252 424.669L463.485 420.394C463.485 420.394 462.004 423.762 461.844 425.328C461.684 426.893 459.212 433.962 459.473 434.952C459.734 435.942 458.406 438.979 458.24 440.544C458.074 442.11 456.024 444.411 455.869 445.229C455.611 445.97 455.309 446.695 454.963 447.399C454.518 448.482 454.161 449.598 453.896 450.738C453.048 454.189 462.827 454.765 462.827 454.765Z" fill="#CA8496"/>
<path opacity="0.1" d="M462.827 454.765C477.295 457.481 479.926 446.374 479.926 446.374C479.926 446.374 481.734 436.506 482.392 435.765C482.474 435.624 482.526 435.469 482.545 435.308C482.565 435.147 482.551 434.983 482.504 434.828L479.019 444.814C479.019 444.814 476.145 450.815 465.459 449.914C459.378 449.398 456.385 448.271 454.933 447.394C454.488 448.476 454.131 449.592 453.866 450.732C453.048 454.189 462.827 454.765 462.827 454.765Z" fill="black"/>
<path opacity="0.1" d="M474.088 439.139C474.088 439.139 470.473 439.222 470.224 436.263L474.088 439.139Z" fill="black"/>
<path d="M361.622 277.727L363.916 278.314L363.412 280.645L361.284 280.105L361.622 277.727Z" fill="#CEDDF9"/>
<path opacity="0.1" d="M361.622 277.727L363.916 278.314L363.412 280.645L361.284 280.105L361.622 277.727Z" fill="black"/>
<path d="M429.694 169.218L428.987 171.999L431.382 172.609L432.089 169.828L429.694 169.218Z" fill="#3A3768"/>
<path d="M418.942 166.477L418.234 169.258L426.177 171.281L426.885 168.499L418.942 166.477Z" fill="#3A3768"/>
<path d="M426.881 168.506L426.173 171.287L428.982 172.003L429.689 169.221L426.881 168.506Z" fill="#3A3768"/>
<path d="M419.064 166.117C418.874 166.205 418.691 166.3 418.507 166.377L418.969 166.496L418.258 169.277L414.744 168.382C414.477 167.751 414.37 167.064 414.434 166.382C414.497 165.701 414.727 165.045 415.105 164.474C415.774 163.393 416.837 162.615 418.068 162.303C418.821 162.087 419.556 161.813 420.267 161.485L419.064 166.117Z" fill="#CEDDF9"/>
<path d="M427.451 178.125L428.523 178.404C428.696 178.448 428.877 178.458 429.054 178.432C429.231 178.407 429.401 178.347 429.555 178.255C429.708 178.164 429.842 178.043 429.949 177.899C430.056 177.756 430.133 177.593 430.177 177.419L431.374 172.628L429.003 172.035L427.451 178.125Z" fill="#3A3768"/>
<path d="M426.633 154.31C425.815 157.512 423.438 160.008 420.226 161.485L424.434 144.94C426.567 147.781 427.462 151.107 426.633 154.31Z" fill="#3A3768"/>
<path d="M425.957 177.745C425.609 177.656 425.311 177.432 425.128 177.123C424.944 176.814 424.891 176.445 424.979 176.097L426.2 171.299L418.258 169.277L394.035 264.479C395.797 267.91 396.244 271.866 395.293 275.603C394.343 279.341 392.059 282.602 388.873 284.772L388.31 286.99L399.055 289.747L427.451 178.149L425.957 177.745Z" fill="#3A3768"/>
<path d="M424.979 176.097C424.891 176.445 424.944 176.814 425.128 177.123C425.311 177.432 425.609 177.656 425.957 177.745L427.451 178.125L429.003 172.017L426.2 171.299L424.979 176.097Z" fill="#3A3768"/>
<path d="M415.099 164.474C415.772 163.397 416.833 162.62 418.063 162.303C418.813 162.085 419.546 161.812 420.255 161.485L424.469 144.94C421.832 141.587 418.136 139.229 413.985 138.251C405.29 136.033 396.863 139.633 395.173 146.286C394.373 149.423 395.215 152.679 397.236 155.478C398.01 156.539 398.912 157.501 399.921 158.342L399.962 158.473C400.533 159.397 400.792 160.481 400.7 161.563C400.608 162.646 400.171 163.671 399.453 164.486L346.313 150.947L334.323 198.08C336.268 196.504 338.55 195.398 340.991 194.849C343.433 194.3 345.968 194.322 348.399 194.913C357.355 197.196 362.624 206.862 360.17 216.499C357.716 226.135 348.494 232.107 339.539 229.853C337.112 229.213 334.866 228.02 332.977 226.367C331.089 224.714 329.608 222.645 328.651 220.324L316.341 268.69L363.412 280.674C361.885 278.735 360.82 276.473 360.299 274.06C359.777 271.648 359.812 269.148 360.401 266.75C362.683 257.796 372.338 252.518 381.974 254.973C384.547 255.603 386.955 256.778 389.035 258.418C391.116 260.058 392.821 262.124 394.035 264.479L418.258 169.277L414.779 168.382C414.507 167.754 414.393 167.069 414.449 166.388C414.505 165.706 414.728 165.048 415.099 164.474Z" fill="#CEDDF9"/>
<path d="M418.963 166.496L419.064 166.117C418.88 166.206 418.697 166.301 418.507 166.384L418.963 166.496Z" fill="#CEDDF9"/>
<g opacity="0.1">
<path opacity="0.1" d="M429.709 169.236L426.905 168.518L418.969 166.496L419.07 166.116L420.256 161.485C419.544 161.813 418.809 162.087 418.057 162.303C416.825 162.615 415.763 163.393 415.093 164.474C414.919 164.772 414.772 165.086 414.655 165.411C414.77 165.086 414.915 164.772 415.087 164.474C415.76 163.397 416.821 162.62 418.051 162.303C418.801 162.085 419.534 161.812 420.244 161.485L424.458 144.94C421.82 141.587 418.124 139.229 413.973 138.251C405.279 136.033 396.851 139.633 395.162 146.286C394.361 149.423 395.203 152.679 397.224 155.478C397.998 156.539 398.9 157.501 399.909 158.342L399.95 158.473C400.521 159.397 400.78 160.481 400.688 161.563C400.597 162.646 400.159 163.671 399.441 164.486L346.301 150.947L334.311 198.08C336.257 196.502 338.541 195.396 340.985 194.846C343.429 194.297 345.966 194.32 348.399 194.913C357.355 197.196 362.624 206.862 360.17 216.499C357.716 226.135 348.494 232.107 339.539 229.853C337.112 229.213 334.866 228.02 332.977 226.367C331.089 224.714 329.608 222.645 328.651 220.324L316.341 268.69L363.412 280.674C361.885 278.735 360.82 276.473 360.299 274.06C359.777 271.648 359.812 269.148 360.401 266.75C362.683 257.796 372.338 252.518 381.975 254.973C384.547 255.603 386.955 256.778 389.035 258.418C391.116 260.058 392.821 262.124 394.035 264.479C395.797 267.91 396.244 271.866 395.293 275.603C394.343 279.341 392.059 282.602 388.873 284.772L388.31 286.99L399.055 289.747L427.451 178.149L428.523 178.427C428.697 178.472 428.877 178.482 429.054 178.456C429.231 178.431 429.401 178.371 429.555 178.279C429.708 178.188 429.842 178.067 429.949 177.923C430.056 177.78 430.133 177.617 430.177 177.443L431.374 172.628L432.079 169.847L429.709 169.236ZM418.78 166.271C418.691 166.312 418.602 166.36 418.513 166.395L418.78 166.271ZM414.75 168.4L418.264 169.295L414.75 168.4Z" fill="black"/>
<path opacity="0.1" d="M426.633 154.31C427.445 151.107 426.55 147.787 424.434 144.94L420.226 161.485C423.456 160.008 425.833 157.506 426.633 154.31Z" fill="black"/>
</g>
<path d="M430.276 166.925L429.568 169.706L431.963 170.316L432.671 167.535L430.276 166.925Z" fill="#3A3768"/>
<path d="M419.523 164.184L418.816 166.965L426.759 168.988L427.467 166.206L419.523 164.184Z" fill="#3A3768"/>
<path d="M427.464 166.201L426.756 168.983L429.565 169.698L430.273 166.917L427.464 166.201Z" fill="#3A3768"/>
<path d="M419.651 163.816L419.094 164.082L419.55 164.195L418.845 166.994L415.33 166.099C415.06 165.469 414.951 164.782 415.013 164.1C415.075 163.417 415.306 162.761 415.686 162.191C416.358 161.113 417.419 160.335 418.649 160.02C419.4 159.804 420.133 159.53 420.842 159.202L419.651 163.816Z" fill="#CEDDF9"/>
<path d="M428.031 175.83L429.11 176.103C429.284 176.15 429.466 176.162 429.645 176.138C429.824 176.113 429.997 176.054 430.153 175.962C430.308 175.87 430.444 175.749 430.552 175.604C430.66 175.459 430.738 175.294 430.781 175.118L432.002 170.327L429.632 169.734L428.031 175.83Z" fill="#3A3768"/>
<path d="M427.225 152.015C426.413 155.211 424.037 157.708 420.818 159.184L425.032 142.639C427.154 145.48 428.049 148.807 427.225 152.015Z" fill="#3A3768"/>
<path d="M426.544 175.451C426.371 175.406 426.208 175.328 426.066 175.221C425.923 175.114 425.803 174.98 425.712 174.826C425.621 174.672 425.561 174.502 425.536 174.326C425.511 174.149 425.521 173.969 425.566 173.796L426.751 169.005L418.845 166.994L394.628 262.184C396.393 265.613 396.842 269.57 395.891 273.307C394.94 277.045 392.655 280.304 389.466 282.471L388.903 284.689L399.654 287.429L428.043 175.83L426.544 175.451Z" fill="#3A3768"/>
<path d="M425.566 173.796C425.521 173.969 425.511 174.149 425.536 174.326C425.561 174.502 425.621 174.672 425.712 174.826C425.803 174.98 425.923 175.114 426.066 175.221C426.208 175.328 426.371 175.406 426.544 175.451L428.031 175.83L429.596 169.716L426.787 169.004L425.566 173.796Z" fill="#3A3768"/>
<path d="M415.686 162.173C416.358 161.095 417.419 160.317 418.649 160.003C419.4 159.786 420.133 159.513 420.842 159.184L425.05 142.639C422.414 139.287 418.72 136.929 414.572 135.95C405.871 133.738 397.449 137.332 395.754 143.991C394.96 147.122 395.796 150.378 397.823 153.177C398.597 154.24 399.498 155.204 400.507 156.047L400.549 156.172C401.118 157.097 401.376 158.18 401.284 159.262C401.192 160.345 400.756 161.369 400.039 162.185L346.894 148.652L334.886 195.779C336.834 194.199 339.121 193.091 341.569 192.543C344.016 191.995 346.556 192.02 348.992 192.618C357.941 194.895 363.216 204.561 360.763 214.204C358.309 223.846 349.081 229.806 340.102 227.529C337.678 226.885 335.436 225.689 333.551 224.035C331.665 222.381 330.187 220.313 329.232 217.993L316.928 266.359L363.993 278.35C362.467 276.41 361.403 274.148 360.883 271.735C360.362 269.322 360.398 266.823 360.988 264.426C363.264 255.465 372.924 250.194 382.561 252.649C385.139 253.279 387.55 254.457 389.632 256.102C391.714 257.747 393.418 259.822 394.628 262.184L418.845 166.994L415.33 166.099C415.06 165.466 414.951 164.776 415.013 164.091C415.075 163.406 415.306 162.747 415.686 162.173Z" fill="#CEDDF9"/>
<path d="M419.55 164.202L419.645 163.816C419.461 163.905 419.278 164 419.094 164.083L419.55 164.202Z" fill="#CEDDF9"/>
<path d="M411.223 341.932C413.001 344.642 415.087 356.491 415.087 356.491C415.087 356.491 416.486 359.201 416.403 361.508C416.32 363.815 417.719 368.031 417.719 368.031L422.324 385.056C422.324 385.056 421.826 389.581 423.557 392.765C425.287 395.95 425.115 394.983 424.298 400.575C423.48 406.167 425.281 411.35 428.239 413.029C431.196 414.707 426.923 418.538 426.923 418.538C426.923 418.538 445.829 423.637 449.777 420.512C453.724 417.387 447.72 401.921 447.72 401.921C447.72 401.921 448.71 388.929 448.052 387.037C447.394 385.145 444.597 369.027 444.597 369.027C444.597 369.027 442.872 361.703 443.53 360.47C444.188 359.237 443.121 355.726 443.121 355.726C443.121 355.726 440.324 351.776 440.572 350.543C440.821 349.31 439.749 347.092 439.749 347.092C439.749 347.092 448.117 334.223 447.376 331.81C446.636 329.396 447.702 325.559 447.702 325.559L450.038 321.563C451.596 318.894 453.481 315.698 454.115 314.701C454.921 313.432 456.865 308.036 457.95 304.923L458.72 302.693C458.72 302.693 460.036 326.876 461.186 329.343C462.336 331.81 464.06 351.284 464.06 351.284C464.699 353.018 464.98 354.864 464.884 356.71C464.718 359.752 467.516 372.994 467.516 372.994C467.516 372.994 468.748 382.37 467.924 384.855C467.101 387.339 467.759 405.503 467.759 405.503C467.759 405.503 463.236 409.061 462.087 411.754C460.937 414.446 462.253 421.835 462.253 421.835C462.253 421.835 475.404 428.417 481.218 426.691C487.032 424.966 484.668 415.009 484.668 415.009C484.668 415.009 488.615 408.433 488.615 405.883C488.615 403.333 490.049 395.547 490.049 395.547C495.063 386.337 493.09 363.969 493.913 362.16C494.737 360.351 492.183 353.603 490.132 350.561C488.081 347.519 488.899 339.294 490.132 336.921C491.365 334.549 488.864 326.301 488.864 326.301C488.864 326.301 491.234 310.343 491.163 307.876C491.092 305.409 493.22 298.091 493.22 298.091C493.22 298.091 495.354 294.308 494.862 293.151C494.37 291.995 496.503 289.042 495.928 287.725C495.354 286.409 496.426 282.388 497.493 280.016C498.038 278.795 498.72 275.426 499.271 272.443C499.775 269.603 500.148 267.106 500.148 267.106L486.582 256.165L452.716 247.27L439.98 243.161L427.563 262.73C426.685 264.157 425.88 265.628 425.151 267.136C424.173 269.17 423.302 271.435 423.456 272.847C423.663 274.628 423.257 276.427 422.306 277.947C422.306 277.947 414.904 301.382 415.07 308.131C415.235 314.879 412.438 329.675 412.438 329.675C412.438 329.675 409.398 339.211 411.223 341.932Z" fill="#CEDDF9"/>
<path d="M461.281 151.279C461.802 151.066 497.558 136.288 492.633 133.353C489.711 131.609 486.114 124.22 483.648 118.438C481.929 114.4 480.762 111.144 480.762 111.144C480.762 111.144 452.064 106.044 462.335 123.645C463.954 126.345 465.174 129.265 465.957 132.315C468.885 144.306 461.518 151.06 461.281 151.279Z" fill="#FEC2BE"/>
<path opacity="0.1" d="M462.336 123.645C463.954 126.345 465.174 129.265 465.957 132.315C469.598 132.061 473.1 130.818 476.087 128.718C479.073 126.619 481.429 123.743 482.901 120.401C483.186 119.761 483.435 119.106 483.648 118.438C481.929 114.4 480.762 111.144 480.762 111.144C480.762 111.144 452.064 106.044 462.336 123.645Z" fill="black"/>
<path d="M444.496 111.637C444.498 116.714 446.424 121.601 449.885 125.314C453.346 129.027 458.086 131.288 463.148 131.642C468.21 131.996 473.218 130.417 477.162 127.222C481.106 124.028 483.693 119.455 484.4 114.428C485.108 109.4 483.885 104.291 480.976 100.131C478.068 95.9703 473.691 93.068 468.728 92.009C463.765 90.9501 458.586 91.8133 454.234 94.4246C449.882 97.0358 446.682 101.201 445.278 106.08C444.759 107.886 444.495 109.757 444.496 111.637Z" fill="#FEC2BE"/>
<path opacity="0.1" d="M425.151 267.13C427.249 269.04 428.055 272.675 428.055 272.675C428.055 272.675 437.923 279.417 437.265 275.142C436.607 270.866 442.362 253.592 442.362 253.592L441.704 277.116C441.704 277.116 473.265 275.634 475.57 273.333C477.876 271.032 491.353 266.62 491.353 266.62C491.353 266.62 495.502 269.935 499.271 272.449C499.775 269.609 500.148 267.112 500.148 267.112L486.582 256.171L452.716 247.276L439.98 243.166L427.563 262.736C426.686 264.159 425.881 265.626 425.151 267.13Z" fill="black"/>
<path d="M424.114 265.274C426.745 266.917 427.729 271.358 427.729 271.358C427.729 271.358 437.591 278.101 436.933 273.825C436.276 269.55 442.03 252.275 442.03 252.275L441.373 275.8C441.373 275.8 472.939 274.329 475.232 272.016C477.526 269.704 491.015 265.274 491.015 265.274C491.015 265.274 502.691 274.649 504.825 273.825C506.958 273.001 501.043 257.049 501.043 257.049L494.968 163.62C494.968 163.62 496.61 135.82 494.144 134.829C493.764 134.675 493.413 134.457 493.107 134.183C491.483 132.724 490.997 129.759 490.855 127.268C490.695 124.303 486.748 125.786 486.748 125.786L489.047 128.751L468.677 141.145L468.499 141.252C467.706 140.834 466.889 140.463 466.052 140.143C464.274 139.449 461.85 138.797 460.279 139.443C459.401 139.889 458.657 140.561 458.122 141.388C456.96 143.135 456.027 145.024 455.348 147.01L447.969 159.504C447.969 159.504 444.188 176.109 444.188 176.779C444.188 177.449 443.038 192.571 441.722 194.213C440.406 195.856 439.091 204.081 439.583 206.548C440.075 209.015 438.759 218.23 438.759 218.23C433.336 222.672 430.544 237.8 430.544 237.8C430.544 237.8 421.974 254.76 421.299 256.717C420.623 258.674 421.482 263.655 424.114 265.274Z" fill="white"/>
<path opacity="0.1" d="M468.677 141.797C470.675 144.762 476.447 148.913 476.447 148.913L493.107 134.829C491.483 133.37 490.997 130.405 490.855 127.909C490.695 124.944 486.748 126.432 486.748 126.432L487.228 127.025C487.457 127.321 487.621 127.661 487.709 128.025C487.798 128.388 487.808 128.766 487.741 129.134C487.673 129.502 487.528 129.851 487.316 130.159C487.105 130.467 486.83 130.727 486.511 130.921L468.677 141.797Z" fill="black"/>
<path d="M468.677 141.139C470.675 144.104 476.447 148.255 476.447 148.255L493.107 134.171C491.483 132.712 490.997 129.747 490.855 127.257C490.695 124.291 486.748 125.774 486.748 125.774L487.228 126.367C487.457 126.662 487.621 127.002 487.709 127.365C487.797 127.728 487.808 128.105 487.74 128.473C487.672 128.84 487.528 129.189 487.316 129.496C487.104 129.804 486.83 130.063 486.511 130.257L468.677 141.139Z" fill="white"/>
<path opacity="0.1" d="M460.972 143.357C463.124 145.93 466.176 148.854 466.034 147.389C465.892 145.924 467.853 142.693 469.104 141.246C467.151 140.626 465.046 140.685 463.13 141.412C462.25 141.856 461.506 142.528 460.972 143.357Z" fill="black"/>
<path d="M460.646 142.366C462.798 144.946 465.844 147.864 465.702 146.405C465.56 144.946 467.32 142.568 468.571 141.121C466.792 140.427 464.374 139.775 462.798 140.427C461.921 140.87 461.178 141.54 460.646 142.366Z" fill="white"/>
<path d="M466.034 156.053C466.76 156.053 467.35 155.464 467.35 154.737C467.35 154.01 466.76 153.42 466.034 153.42C465.307 153.42 464.718 154.01 464.718 154.737C464.718 155.464 465.307 156.053 466.034 156.053Z" fill="#FF718D"/>
<path d="M456.059 191.58C456.786 191.58 457.375 190.991 457.375 190.264C457.375 189.537 456.786 188.947 456.059 188.947C455.332 188.947 454.743 189.537 454.743 190.264C454.743 190.991 455.332 191.58 456.059 191.58Z" fill="#FF718D"/>
<path d="M444.774 227.552C445.501 227.552 446.09 226.963 446.09 226.236C446.09 225.509 445.501 224.919 444.774 224.919C444.048 224.919 443.459 225.509 443.459 226.236C443.459 226.963 444.048 227.552 444.774 227.552Z" fill="#FF718D"/>
<path d="M444.443 266.697C445.169 266.697 445.758 266.108 445.758 265.381C445.758 264.654 445.169 264.064 444.443 264.064C443.716 264.064 443.127 264.654 443.127 265.381C443.127 266.108 443.716 266.697 444.443 266.697Z" fill="#FF718D"/>
<path d="M460.226 172.829C460.952 172.829 461.541 172.24 461.541 171.513C461.541 170.786 460.952 170.196 460.226 170.196C459.499 170.196 458.91 170.786 458.91 171.513C458.91 172.24 459.499 172.829 460.226 172.829Z" fill="#FF718D"/>
<path d="M451.347 209.347C452.074 209.347 452.663 208.758 452.663 208.031C452.663 207.303 452.074 206.714 451.347 206.714C450.621 206.714 450.032 207.303 450.032 208.031C450.032 208.758 450.621 209.347 451.347 209.347Z" fill="#FF718D"/>
<path d="M442.688 245.206C443.415 245.206 444.004 244.617 444.004 243.89C444.004 243.163 443.415 242.573 442.688 242.573C441.962 242.573 441.373 243.163 441.373 243.89C441.373 244.617 441.962 245.206 442.688 245.206Z" fill="#FF718D"/>
<path d="M444.662 271.085C445.389 271.085 445.978 270.496 445.978 269.769C445.978 269.042 445.389 268.452 444.662 268.452C443.935 268.452 443.346 269.042 443.346 269.769C443.346 270.496 443.935 271.085 444.662 271.085Z" fill="#FF718D"/>
<path opacity="0.1" d="M493.107 134.972C493.107 134.972 492.888 132.997 495.733 136.401C498.578 139.805 503.953 142.758 503.953 142.758C503.953 142.758 516.121 151.315 516.779 155.258C517.437 159.202 521.378 176.316 519.298 182.015C517.217 187.714 501.31 215.028 501.31 215.028C501.31 215.028 505.459 219.968 504.493 225.779C503.527 231.591 502.3 239.597 502.845 241.352C503.39 243.107 502.187 247.489 504.03 249.025C505.874 250.561 507.865 253.176 502.057 256.699C502.057 256.699 500.96 259.664 501.944 260.322C502.928 260.98 487.37 267.776 481.2 264.159C475.031 260.542 464.013 231.591 463.776 225.121C463.539 218.651 467.172 197.25 469.145 192.221C471.119 187.192 477.04 167.546 479.559 163.163C482.078 158.781 493.107 134.972 493.107 134.972Z" fill="black"/>
<path d="M493.759 134.972C493.759 134.972 493.54 132.997 496.391 136.401C499.241 139.805 504.611 142.758 504.611 142.758C504.611 142.758 516.779 151.315 517.437 155.258C518.095 159.202 522.036 176.316 519.956 182.015C517.875 187.714 501.98 215.028 501.98 215.028C501.98 215.028 506.128 219.968 505.162 225.779C504.196 231.591 502.969 239.597 503.515 241.352C504.06 243.107 502.857 247.489 504.7 249.025C506.543 250.561 508.535 253.176 502.726 256.699C502.726 256.699 501.63 259.664 502.614 260.322C503.598 260.98 488.04 267.776 481.87 264.159C475.7 260.542 464.683 231.591 464.445 225.121C464.208 218.651 467.841 197.25 469.815 192.221C471.789 187.192 477.71 167.546 480.228 163.163C482.747 158.781 493.759 134.972 493.759 134.972Z" fill="#4C4981"/>
<path opacity="0.1" d="M498.145 153.64C498.145 153.64 488.721 164.059 489.047 170.967C489.047 170.967 488.941 159.777 498.145 153.64Z" fill="black"/>
<path opacity="0.1" d="M485.106 170.748C485.106 171.074 478.747 194.759 479.079 197.724C479.411 200.689 477.212 209.454 477.212 209.454L474.248 208.689C474.248 208.689 476.548 196.514 476.987 192.019C477.425 187.524 485.106 170.748 485.106 170.748Z" fill="black"/>
<path opacity="0.1" d="M482.581 238.298C482.801 238.624 497.6 255.4 493.433 256.61C489.267 257.82 482.581 238.298 482.581 238.298Z" fill="black"/>
<path opacity="0.1" d="M494.749 234.004C495.075 234.224 500.676 246.066 501.322 242.9C501.968 239.733 496.503 251.563 495.626 242.793L494.749 234.004Z" fill="black"/>
<path opacity="0.1" d="M466.342 138.725C466.342 138.725 460.232 134.995 452.556 144.537C452.556 144.537 446.967 147.715 445.326 148.486C443.684 149.257 441.817 169.651 441.817 169.651C441.817 169.651 438.202 178.422 439.186 183.468C440.169 188.515 436.341 205.836 436.341 205.836C436.341 205.836 429.975 236.969 430.189 237.859C430.402 238.749 436.655 228.098 436.548 222.832C436.441 217.566 441.805 201.122 442.576 200.132C443.346 199.141 448.603 170.967 448.603 170.967C448.603 170.967 452.876 159.012 455.615 155.063C458.353 151.113 461.755 143.659 463.177 142.343C464.201 141.456 465.344 140.718 466.573 140.149L466.342 138.725Z" fill="black"/>
<path d="M466.419 138.725C466.419 138.725 459.568 134.995 451.898 144.537C451.898 144.537 446.304 147.715 444.662 148.486C443.02 149.257 441.153 169.651 441.153 169.651C441.153 169.651 437.538 178.421 438.522 183.468C439.506 188.515 435.677 205.836 435.677 205.836C435.677 205.836 429.318 236.981 429.537 237.859C429.756 238.737 436.003 228.098 435.896 222.832C435.79 217.566 441.153 201.122 441.924 200.132C442.694 199.141 447.969 170.967 447.969 170.967C447.969 170.967 452.242 159.012 454.98 155.063C457.719 151.113 461.121 143.659 462.543 142.343C463.965 141.026 466.597 140.149 466.597 140.149L466.419 138.725Z" fill="#4C4981"/>
<path d="M436.335 207.26C436.335 207.26 423.296 198.708 416.99 202.931C410.684 207.153 400.395 213.13 410.524 217.459C420.653 221.788 434.687 220.958 434.687 220.958L436.335 207.26Z" fill="#FEC2BE"/>
<path opacity="0.1" d="M445.403 289.783C447.347 293.934 448.959 314.915 450.037 321.563C451.596 318.894 453.481 315.698 454.115 314.701C454.921 313.432 456.865 308.036 457.95 304.923C456.711 301.91 453.291 293.276 453.291 290.097C453.291 286.231 447.044 281.38 447.044 281.38C447.044 281.38 443.103 284.849 445.403 289.783Z" fill="black"/>
<path opacity="0.1" d="M487.323 354.178C487.323 354.178 472.856 348.011 468.582 352.399C464.309 356.787 487.323 354.178 487.323 354.178Z" fill="black"/>
<path opacity="0.1" d="M479.185 356.645C479.185 356.645 493.819 364.87 488.804 366.246C483.79 367.622 479.185 356.645 479.185 356.645Z" fill="black"/>
<path opacity="0.1" d="M435.458 349.493C435.458 349.493 441.704 349.903 439.322 351.136C436.939 352.369 435.458 349.493 435.458 349.493Z" fill="black"/>
<path opacity="0.1" d="M427.646 351.385C427.729 351.794 445.812 357.635 442.279 360.28C438.747 362.925 427.646 351.385 427.646 351.385Z" fill="black"/>
<path opacity="0.1" d="M485.183 401.72C482.475 401.305 467.35 394.313 473.264 399.348C479.179 404.382 485.183 401.72 485.183 401.72Z" fill="black"/>
<path opacity="0.1" d="M477.704 407.229C477.704 407.229 476.388 412.329 471.374 411.671C466.36 411.012 477.704 407.229 477.704 407.229Z" fill="black"/>
<path opacity="0.1" d="M481.9 417.589C480.993 417.346 470.224 412.412 469.981 414.713C469.738 417.014 480.252 421.046 481.076 419.813C481.548 419.16 481.833 418.391 481.9 417.589Z" fill="black"/>
<path opacity="0.1" d="M447.044 411.671C445.729 411.587 433.413 407.638 430.936 411.172L447.044 411.671Z" fill="black"/>
<path opacity="0.1" d="M435.867 413.971C435.867 413.971 433.727 412.08 431.593 413.064C429.46 414.049 435.867 413.971 435.867 413.971Z" fill="black"/>
<path opacity="0.1" d="M463.159 434.371C463.021 435.07 462.683 435.713 462.187 436.224C461.69 436.734 461.056 437.09 460.362 437.247L463.159 434.371Z" fill="black"/>
<path d="M400.436 442.098C401.26 445.472 412.77 445.798 418.276 444.897C423.782 443.996 435.209 440.698 435.209 440.698C435.209 440.698 447.21 439.548 450.743 438.071C454.275 436.595 451.484 432.805 451.484 432.805C451.484 432.805 451.484 432.675 451.484 432.45C451.567 431.074 451.816 426.087 450.968 424.741C449.984 423.175 450.559 418.075 450.559 418.075C450.559 418.075 433.543 421.366 433.211 419.807C432.879 418.247 430.248 416.023 429.021 415.531C427.794 415.039 426.882 419.641 426.882 419.641C426.882 419.641 419.177 426.223 418.661 428.607C418.146 430.991 412.734 432.224 412.734 432.224C412.734 432.224 404.514 434.525 402.374 435.676C401.754 435.968 401.219 436.416 400.822 436.976C400.425 437.536 400.18 438.189 400.11 438.872C400.021 439.958 400.131 441.052 400.436 442.098Z" fill="#CA8496"/>
<path opacity="0.1" d="M400.436 442.098C401.26 445.472 412.77 445.798 418.276 444.897C423.782 443.996 435.209 440.698 435.209 440.698C435.209 440.698 447.21 439.548 450.743 438.071C454.275 436.595 451.484 432.805 451.484 432.805C451.484 432.805 451.484 432.675 451.484 432.45L434.296 436.263C434.296 436.263 425.827 439.88 420.404 439.88C415.662 439.88 405.053 441.819 400.134 438.878C400.037 439.961 400.14 441.052 400.436 442.098Z" fill="black"/>
<path opacity="0.1" d="M423.699 429.105C423.699 429.105 424.523 434.531 427.812 436.34L423.699 429.105Z" fill="black"/>
<path opacity="0.1" d="M445.278 106.08C445.591 106.246 445.919 106.383 446.256 106.489C447.797 106.904 449.303 105.861 450.672 105.03C452.041 104.2 453.931 103.584 455.117 104.663C456.664 106.068 455.543 109.069 457.138 110.427C458.145 111.287 459.746 110.99 460.866 111.696C461.986 112.402 462.324 113.949 462.608 115.284C462.893 116.618 463.462 118.142 464.766 118.533C466.069 118.925 467.284 118.065 468.571 118.112C468.837 118.112 469.163 118.154 469.329 117.964C469.447 117.79 469.491 117.577 469.454 117.371C469.293 115.777 469.436 114.167 469.874 112.627C470.402 111.109 471.652 109.739 473.217 109.496C475.523 109.14 477.461 111.162 478.818 113.054C480.245 115.057 481.543 117.149 482.706 119.316C482.78 119.456 482.845 119.601 482.901 119.749C484.015 117.232 484.599 114.514 484.618 111.762C484.636 109.01 484.089 106.283 483.01 103.752C481.931 101.22 480.342 98.938 478.344 97.0468C476.346 95.1556 473.98 93.6958 471.394 92.7583C468.808 91.8208 466.057 91.4256 463.312 91.5971C460.566 91.7687 457.886 92.5034 455.436 93.7557C452.987 95.0079 450.821 96.7508 449.074 98.8761C447.326 101.001 446.034 103.464 445.278 106.11V106.08Z" fill="black"/>
<path d="M478.818 112.722C477.461 110.812 475.523 108.796 473.211 109.164C471.629 109.407 470.408 110.777 469.874 112.289C469.435 113.829 469.294 115.44 469.46 117.033C469.492 117.24 469.446 117.452 469.329 117.626C469.145 117.822 468.837 117.792 468.571 117.78C467.284 117.733 466.004 118.569 464.766 118.201C463.527 117.834 462.893 116.286 462.608 114.952C462.324 113.617 462.016 112.093 460.866 111.364C459.716 110.634 458.145 110.955 457.138 110.089C455.543 108.737 456.67 105.73 455.117 104.325C453.931 103.251 452.041 103.868 450.672 104.698C449.303 105.529 447.797 106.566 446.25 106.151C445.729 106.009 445.261 105.712 444.751 105.517C442.315 104.586 439.156 106.163 437.153 104.491C436.426 103.763 435.903 102.857 435.635 101.864C435.086 100.52 434.713 99.1109 434.527 97.6712C434.35 96.2158 434.75 94.749 435.641 93.5853C436.945 92.0494 439.15 91.664 440.815 90.5313C442.232 89.5588 443.186 88.0822 444.123 86.6293C445.059 85.1764 445.966 83.6643 447.335 82.6384C448.704 81.6124 450.624 81.1025 452.153 81.8793C452.636 82.2159 453.17 82.4704 453.736 82.6324C454.352 82.6403 454.958 82.4738 455.484 82.1521C461.186 79.4657 467.824 79.9402 474.076 80.7407C476.578 81.0609 479.114 81.4345 481.396 82.5198C483.678 83.605 485.693 85.4848 486.333 87.928C486.843 89.8612 486.452 91.9664 487.068 93.8581C487.483 95.1509 488.336 96.2302 488.846 97.5289C490.18 100.998 488.585 104.805 487.91 108.458C487.175 112.449 487.542 116.76 485.847 120.544C485.515 121.285 485.142 122.584 484.306 122.097C483.713 121.736 483.085 119.63 482.73 118.972C481.56 116.807 480.254 114.72 478.818 112.722Z" fill="#9A5E7F"/>
<path opacity="0.1" d="M514.942 176.998L517.905 185.443C517.905 185.443 510.888 211.535 507.598 217.021C504.309 222.506 499.49 229.521 499.49 229.521C499.49 229.521 491.383 233.583 481.953 231.715C472.524 229.847 445.006 224.919 445.006 224.919C445.006 224.919 442.7 225.358 441.497 223.603C440.294 221.848 434.029 220.958 434.029 220.958C434.029 220.958 426.799 210.432 435.677 206.044C435.677 206.044 436.773 208.458 441.485 206.815C446.197 205.172 447.619 208.125 447.619 208.125C447.619 208.125 455.324 209.661 459.568 209.116C463.811 208.57 474.474 208.345 475.57 207.467C475.848 207.223 476.211 207.099 476.58 207.12C476.949 207.141 477.295 207.306 477.544 207.58C477.544 207.58 480.169 206.595 481.046 205.605C481.924 204.615 483.133 206.702 483.133 206.702C483.133 206.702 484.668 205.825 484.229 204.727C483.79 203.63 485.651 199.467 485.651 199.467C485.651 199.467 486.529 196.722 485.983 194.528C485.438 192.334 488.722 184.446 488.722 184.446C488.764 183.116 488.617 181.786 488.283 180.497C487.732 178.528 492.432 174.567 492.432 174.567C492.432 174.567 497.031 152.193 506.786 159.54C516.542 166.887 514.942 176.998 514.942 176.998Z" fill="black"/>
<path d="M515.57 176.998L518.533 185.443C518.533 185.443 511.516 211.535 508.226 217.021C504.937 222.506 500.125 229.521 500.125 229.521C500.125 229.521 492.017 233.583 482.587 231.715C473.158 229.847 445.652 224.919 445.652 224.919C445.652 224.919 443.352 225.358 442.149 223.603C440.946 221.848 434.687 220.958 434.687 220.958C434.687 220.958 427.457 210.432 436.335 206.044C436.335 206.044 437.431 208.458 442.143 206.815C446.855 205.172 448.277 208.125 448.277 208.125C448.277 208.125 455.982 209.661 460.226 209.116C464.469 208.57 475.131 208.345 476.228 207.467C476.506 207.223 476.869 207.099 477.238 207.12C477.607 207.141 477.953 207.306 478.201 207.58C478.201 207.58 480.827 206.595 481.704 205.605C482.581 204.615 483.79 206.702 483.79 206.702C483.79 206.702 485.325 205.825 484.887 204.727C484.448 203.63 486.309 199.467 486.309 199.467C486.309 199.467 487.186 196.722 486.635 194.528C486.084 192.334 489.379 184.446 489.379 184.446C489.422 183.116 489.275 181.786 488.941 180.497C488.39 178.528 493.09 174.567 493.09 174.567C493.09 174.567 497.689 152.193 507.444 159.54C517.2 166.887 515.57 176.998 515.57 176.998Z" fill="#4C4981"/>
<path opacity="0.1" d="M444.336 212.306C444.443 213.077 446.855 216.143 445.978 216.694C445.1 217.246 443.678 216.914 444.994 218.669C446.31 220.424 446.179 223.052 445.32 222.725C444.46 222.399 443.02 218.45 443.02 216.914C443.02 215.378 444.336 212.306 444.336 212.306Z" fill="black"/>
<path opacity="0.1" d="M476.886 210.551C476.886 210.551 477.544 218.23 482.937 220.424C488.33 222.619 476.886 210.551 476.886 210.551Z" fill="black"/>
<path opacity="0.1" d="M488.064 207.912C488.39 208.025 495.733 211.974 492.449 214.275C489.166 216.576 488.064 207.912 488.064 207.912Z" fill="black"/>
<path opacity="0.1" d="M488.502 202.438C488.502 202.438 499.241 204.633 495.614 206.495C491.987 208.357 488.502 202.438 488.502 202.438Z" fill="black"/>
<g opacity="0.1">
<path opacity="0.1" d="M469.898 110.409C470.431 108.897 471.676 107.527 473.235 107.284C475.546 106.928 477.484 108.95 478.842 110.842C480.268 112.845 481.567 114.937 482.73 117.104C483.085 117.762 483.69 119.862 484.306 120.223C485.142 120.716 485.491 119.417 485.847 118.676C487.542 114.904 487.175 110.581 487.91 106.59C488.342 104.26 489.142 101.846 489.32 99.5332C489.575 102.403 488.449 105.422 487.91 108.339C487.175 112.33 487.542 116.642 485.847 120.431C485.515 121.172 485.142 122.471 484.306 121.979C483.713 121.617 483.085 119.518 482.73 118.859C481.567 116.692 480.268 114.6 478.842 112.597C477.484 110.694 475.546 108.672 473.235 109.039C471.652 109.282 470.431 110.652 469.898 112.164C469.634 112.961 469.486 113.792 469.46 114.631C469.342 113.209 469.491 111.777 469.898 110.409Z" fill="black"/>
<path opacity="0.1" d="M435.635 99.9839C435.901 100.98 436.424 101.888 437.153 102.617C439.156 104.289 442.315 102.712 444.751 103.643C445.261 103.833 445.729 104.135 446.25 104.277C447.797 104.687 449.308 103.649 450.672 102.819C452.035 101.988 453.937 101.378 455.117 102.451C456.67 103.856 455.543 106.857 457.138 108.215C458.145 109.075 459.746 108.808 460.866 109.49C461.986 110.172 462.324 111.737 462.608 113.048C462.893 114.359 463.456 115.906 464.766 116.298C466.075 116.689 467.284 115.835 468.571 115.883C468.837 115.883 469.163 115.924 469.329 115.728C469.368 115.678 469.398 115.622 469.418 115.562C469.418 116.007 469.418 116.446 469.46 116.885C469.492 117.092 469.445 117.303 469.329 117.478C469.145 117.668 468.837 117.638 468.571 117.626C467.284 117.584 466.004 118.415 464.766 118.047C463.527 117.679 462.893 116.138 462.608 114.797C462.324 113.457 462.015 111.939 460.866 111.239C459.716 110.54 458.145 110.824 457.138 109.964C455.543 108.606 456.67 105.6 455.117 104.2C453.931 103.121 452.041 103.738 450.672 104.568C449.303 105.398 447.797 106.436 446.25 106.027C445.729 105.884 445.261 105.582 444.751 105.392C442.315 104.461 439.156 106.039 437.153 104.366C436.426 103.636 435.902 102.729 435.635 101.733C435.086 100.392 434.714 98.9843 434.527 97.5467C434.486 97.0566 434.498 96.5635 434.563 96.076C434.769 97.4155 435.129 98.7268 435.635 99.9839Z" fill="black"/>
</g>
<path d="M59.1373 431.619C59.1373 431.619 34.0789 430.107 37.0305 447.672C37.0305 447.672 36.4378 450.78 39.2589 452.191C39.2589 452.191 39.3004 450.886 41.8311 451.325C42.7296 451.476 43.6425 451.521 44.5515 451.462C45.7798 451.377 46.947 450.894 47.8765 450.086C47.8765 450.086 54.9234 447.174 57.6615 435.652C57.6615 435.652 59.6885 433.143 59.6055 432.497L55.3797 434.276C55.3797 434.276 56.8259 437.33 55.6879 439.868C55.6879 439.868 55.5516 434.389 54.7397 434.531C54.5737 434.531 52.5408 435.587 52.5408 435.587C52.5408 435.587 55.0301 440.924 53.1335 444.772C53.1335 444.772 53.8447 438.22 51.7466 435.972L48.7832 437.71C48.7832 437.71 51.6874 443.201 49.7197 447.684C49.7197 447.684 50.2235 440.811 48.155 438.137L45.4583 440.242C45.4583 440.242 48.1906 445.65 46.5251 449.368C46.5251 449.368 46.3059 441.369 44.8775 440.764C44.8775 440.764 42.5068 442.845 42.1571 443.729C42.1571 443.729 44.024 447.66 42.8624 449.736C42.8624 449.736 42.1512 444.399 41.5704 444.399C41.5704 444.399 39.1997 447.927 38.9744 450.329C38.9744 450.329 39.0752 446.729 41.0014 444.037C39.6455 444.294 38.3947 444.944 37.4038 445.905C37.4038 445.905 37.7654 443.409 41.5822 443.189C41.5822 443.189 43.5262 440.509 44.0418 440.349C44.0418 440.349 40.2487 440.028 37.9491 441.048C37.9491 441.048 39.9761 438.676 44.7412 439.767L47.4023 437.591C47.4023 437.591 42.406 436.909 40.2902 437.662C40.2902 437.662 42.7261 435.581 48.1195 437.099L51.0176 435.361C51.0176 435.361 46.7622 434.442 44.2256 434.768C44.2256 434.768 46.8985 433.327 51.8711 434.893L53.9395 433.962C53.9395 433.962 50.8221 433.369 49.9093 433.25C48.9966 433.132 48.9433 432.9 48.9433 432.9C50.9198 432.571 52.949 432.796 54.8048 433.553C54.8048 433.553 59.2084 431.892 59.1373 431.619Z" fill="#CEDDF9"/>
<path opacity="0.1" d="M41.8786 456.722C51.6722 456.722 59.6115 455.378 59.6115 453.721C59.6115 452.064 51.6722 450.72 41.8786 450.72C32.0849 450.72 24.1457 452.064 24.1457 453.721C24.1457 455.378 32.0849 456.722 41.8786 456.722Z" fill="#CEDDF9"/>
<path d="M107.18 385.323C107.18 385.323 93.0503 384.469 94.7335 394.378C94.6485 394.881 94.7242 395.397 94.9499 395.854C95.1755 396.311 95.5395 396.685 95.99 396.922C95.99 396.922 95.99 396.187 97.442 396.436C97.9493 396.518 98.4641 396.544 98.9771 396.513C99.6683 396.461 100.325 396.189 100.85 395.736C100.85 395.736 104.809 394.117 106.374 387.594C106.374 387.594 107.518 386.177 107.47 385.815L105.099 386.829C105.099 386.829 105.911 388.555 105.271 389.984C105.271 389.984 105.194 386.895 104.738 386.966C104.643 386.966 103.499 387.559 103.499 387.559C103.499 387.559 104.898 390.524 103.843 392.736C103.843 392.736 104.24 389.041 103.061 387.772L101.371 388.78C101.371 388.78 103.007 391.876 101.899 394.402C101.899 394.402 102.183 390.524 101.016 389.018L99.4986 390.204C99.4986 390.204 101.034 393.258 100.091 395.351C100.091 395.351 99.9668 390.838 99.1608 390.5C98.5851 390.988 98.0698 391.544 97.6258 392.155C97.6258 392.155 98.6807 394.372 98.0288 395.541C98.0288 395.541 97.6258 392.534 97.2998 392.522C97.2998 392.522 95.9722 394.509 95.8359 395.879C95.8973 394.613 96.2897 393.386 96.9738 392.321C96.2103 392.469 95.5062 392.835 94.9469 393.376C94.9469 393.376 95.1543 391.965 97.3176 391.846C97.3176 391.846 98.4081 390.334 98.7045 390.245C98.7045 390.245 96.5649 390.061 95.2669 390.636C95.2669 390.636 96.4108 389.308 99.0956 389.913L100.595 388.685C100.595 388.685 97.7799 388.3 96.5886 388.727C96.5886 388.727 97.9636 387.541 101.004 388.407L102.634 387.434C101.378 387.156 100.09 387.044 98.8052 387.102C98.8052 387.102 100.317 386.284 103.114 387.167L104.299 386.645C104.299 386.645 102.521 386.296 102.029 386.242C101.537 386.189 101.484 386.047 101.484 386.047C102.599 385.861 103.744 385.988 104.791 386.414C104.791 386.414 107.245 385.477 107.18 385.323Z" fill="#CEDDF9"/>
<path opacity="0.1" d="M97.4717 399.472C102.994 399.472 107.47 398.716 107.47 397.782C107.47 396.849 102.994 396.092 97.4717 396.092C91.9497 396.092 87.4732 396.849 87.4732 397.782C87.4732 398.716 91.9497 399.472 97.4717 399.472Z" fill="#CEDDF9"/>
<path d="M23.8197 393.922C23.8197 393.922 6.76244 392.89 8.79532 404.851C8.69211 405.458 8.78328 406.082 9.05579 406.633C9.3283 407.185 9.7682 407.636 10.3126 407.923C10.3126 407.923 10.3126 407.033 12.061 407.33C12.6736 407.433 13.2964 407.463 13.916 407.419C14.7529 407.363 15.5483 407.034 16.1801 406.482C16.1801 406.482 20.9748 404.501 22.8418 396.661C22.8418 396.661 24.2168 394.954 24.1634 394.515L21.2415 395.748C21.2415 395.748 22.2195 397.824 21.449 399.549C21.449 399.549 21.3541 395.825 20.803 395.914C20.6903 395.914 19.3094 396.632 19.3094 396.632C19.3094 396.632 20.9985 400.249 19.7243 402.882C19.7243 402.882 20.2044 398.423 18.776 396.893L16.755 398.079C16.755 398.079 18.7286 401.815 17.3891 404.863C17.3891 404.863 17.7329 400.184 16.3282 398.34L14.4909 399.775C14.4909 399.775 16.346 403.457 15.214 405.99C15.214 405.99 15.0658 400.54 14.0939 400.131C14.0939 400.131 12.4877 401.548 12.2388 402.129C12.2388 402.129 13.513 404.804 12.7248 406.215C12.7248 406.215 12.2388 402.586 11.8417 402.568C11.8417 402.568 10.2415 404.976 10.0636 406.624C10.143 405.101 10.619 403.625 11.4446 402.343C10.52 402.516 9.66668 402.957 8.9909 403.612C8.9909 403.612 9.23983 401.91 11.8417 401.761C11.8417 401.761 13.1634 399.941 13.513 399.828C13.513 399.828 10.9349 399.609 9.36429 400.303C9.36429 400.303 10.7452 398.701 13.9872 399.431L15.8008 397.948C15.8008 397.948 12.3988 397.486 10.9586 398.002C10.9586 398.002 12.6181 396.578 16.2927 397.616L18.2663 396.43C18.2663 396.43 15.3681 395.802 13.6434 396.027C13.6434 396.027 15.4629 395.043 18.8471 396.11L20.2577 395.475C20.2577 395.475 18.1359 395.06 17.5136 394.995C16.8913 394.93 16.8557 394.758 16.8557 394.758C18.2002 394.53 19.5816 394.682 20.8444 395.197C20.8444 395.197 23.873 394.117 23.8197 393.922Z" fill="#CEDDF9"/>
<path opacity="0.1" d="M12.0728 411.006C18.7405 411.006 24.1457 410.093 24.1457 408.966C24.1457 407.84 18.7405 406.926 12.0728 406.926C5.40519 406.926 0 407.84 0 408.966C0 410.093 5.40519 411.006 12.0728 411.006Z" fill="#CEDDF9"/>
<path opacity="0.1" d="M360.182 486.236C369.975 486.236 377.915 484.892 377.915 483.235C377.915 481.578 369.975 480.234 360.182 480.234C350.388 480.234 342.449 481.578 342.449 483.235C342.449 484.892 350.388 486.236 360.182 486.236Z" fill="#CEDDF9"/>
<path d="M348.275 469.299C348.275 469.299 358.392 468.985 361.438 466.815C364.485 464.644 376.996 462.071 377.755 465.534C378.513 468.997 392.957 482.856 381.536 482.95C370.115 483.045 355.002 481.171 351.955 479.315C348.909 477.459 348.275 469.299 348.275 469.299Z" fill="#A8A8A8"/>
<path opacity="0.2" d="M381.737 481.735C370.316 481.83 355.203 479.956 352.163 478.106C349.845 476.688 348.921 471.624 348.607 469.288H348.269C348.269 469.288 348.909 477.447 351.949 479.303C354.99 481.16 370.109 483.028 381.53 482.939C384.825 482.939 385.963 481.753 385.904 479.974C385.453 481.059 384.191 481.717 381.737 481.735Z" fill="black"/>
</g>
<defs>
<linearGradient id="paint0_linear" x1="422.786" y1="160.352" x2="422.786" y2="141.418" gradientUnits="userSpaceOnUse">
<stop stop-color="#808080" stop-opacity="0.25"/>
<stop offset="0.54" stop-color="#808080" stop-opacity="0.12"/>
<stop offset="1" stop-color="#808080" stop-opacity="0.1"/>
</linearGradient>
<linearGradient id="paint1_linear" x1="176605" y1="304355" x2="176605" y2="64872.7" gradientUnits="userSpaceOnUse">
<stop stop-color="#808080" stop-opacity="0.25"/>
<stop offset="0.54" stop-color="#808080" stop-opacity="0.12"/>
<stop offset="1" stop-color="#808080" stop-opacity="0.1"/>
</linearGradient>
<clipPath id="clip0">
<rect width="551" height="485.486" fill="white" transform="translate(0 0.749466)"/>
</clipPath>
</defs>
</svg>