<svg width="75" height="75" viewBox="0 0 75 75" fill="none" xmlns="http://www.w3.org/2000/svg">
<path d="M73.3625 58.4173L56.425 43.0173C54.7625 41.5048 52.1959 41.584 50.6292 43.1965L40.6584 53.4506C38.2584 52.9923 33.4334 51.4881 28.4667 46.534C23.5 41.5631 21.9959 36.7256 21.55 34.3423L31.7959 24.3673C33.4125 22.8006 33.4875 20.2381 31.975 18.5715L16.5792 1.63813C15.0667 -0.0327067 12.4958 -0.19104 10.7833 1.27563L1.74168 9.02979C1.02085 9.7548 0.591682 10.7131 0.533349 11.734C0.470849 12.7756 -0.720818 37.4506 18.4125 56.5923C35.1042 73.2798 56.0125 74.5006 61.7709 74.5006C62.6125 74.5006 63.1292 74.4756 63.2667 74.4673C64.2875 74.409 65.2459 73.9798 65.9667 73.2548L73.7167 64.209C75.1917 62.4965 75.0292 59.9298 73.3625 58.4173Z" fill="#F9F4F5"/>
</svg>
