<svg width="86" height="86" viewBox="0 0 86 86" fill="none" xmlns="http://www.w3.org/2000/svg">
<path d="M43 7.16663C23.2415 7.16663 7.16666 23.2415 7.16666 43C7.16666 62.7585 23.2415 78.8333 43 78.8333C62.7585 78.8333 78.8333 62.7585 78.8333 43C78.8333 23.2415 62.7585 7.16663 43 7.16663ZM43 71.6666C27.1939 71.6666 14.3333 58.806 14.3333 43C14.3333 27.1939 27.1939 14.3333 43 14.3333C58.8061 14.3333 71.6667 27.1939 71.6667 43C71.6667 58.806 58.8061 71.6666 43 71.6666Z" fill="#1B1B1E"/>
<path d="M53.1372 53.1335C52.4743 53.7929 51.7612 54.3841 51.0159 54.8858C50.2383 55.409 49.4213 55.8533 48.5792 56.208C47.7049 56.5771 46.8019 56.8566 45.8953 57.043C43.9925 57.43 42.0002 57.43 40.1046 57.043C39.1945 56.8566 38.2915 56.5771 37.4171 56.208C36.5786 55.8533 35.758 55.409 34.984 54.8858C34.2351 54.3805 33.522 53.7929 32.8591 53.1335C32.2105 52.485 31.6193 51.7719 31.1105 51.0122L25.1693 55.022C25.9397 56.1615 26.8248 57.2329 27.7995 58.2075C28.7777 59.1858 29.8491 60.0709 30.9779 60.827C32.1353 61.6081 33.3644 62.2746 34.6329 62.8085C35.9408 63.3604 37.2989 63.7832 38.6749 64.0627C40.0939 64.353 41.5523 64.4999 43 64.4999C44.4476 64.4999 45.906 64.353 47.3286 64.0627C48.701 63.7832 50.0591 63.3604 51.367 62.8085C52.6355 62.2746 53.861 61.6081 55.0256 60.827C56.1472 60.0673 57.2186 59.1858 58.2005 58.2075C59.1751 57.2365 60.0638 56.1615 60.8306 55.022L54.8895 51.0122C54.377 51.7719 53.7858 52.485 53.1372 53.1335Z" fill="#1B1B1E"/>
<path d="M30.4583 43C33.4269 43 35.8333 40.5935 35.8333 37.625C35.8333 34.6565 33.4269 32.25 30.4583 32.25C27.4898 32.25 25.0833 34.6565 25.0833 37.625C25.0833 40.5935 27.4898 43 30.4583 43Z" fill="#1B1B1E"/>
<path d="M55.5166 42.9498C58.4713 42.9498 60.8665 40.5546 60.8665 37.5999C60.8665 34.6452 58.4713 32.25 55.5166 32.25C52.5619 32.25 50.1667 34.6452 50.1667 37.5999C50.1667 40.5546 52.5619 42.9498 55.5166 42.9498Z" fill="#1B1B1E"/>
</svg>
